<svg width="22" height="24" fill="none" xmlns="http://www.w3.org/2000/svg"><path d="M21.75 5.165L11.12.035a.343.343 0 0 0-.297 0L.193 5.164a.343.343 0 0 0-.193.31v12.461c0 .132.075.252.194.31l10.629 5.13a.343.343 0 0 0 .298 0l10.629-5.13a.343.343 0 0 0 .193-.31V5.475a.343.343 0 0 0-.193-.31zM10.972.724l9.84 4.75-2.853 1.377a.34.34 0 0 0-.058-.037L8.128 2.096 10.972.724zm-3.618 1.76l9.825 4.744-2.012.971-9.822-4.741 2.009-.974zm10.055 5.394v3.591l-1.88.908V8.786l1.88-.908zm3.849 9.842l-9.943 4.8v-11.7l2.371-1.145a.343.343 0 1 0-.298-.617l-2.416 1.166-.951-.459a.343.343 0 1 0-.298.618l.906.437v11.7l-9.943-4.8V6.02l7.571 3.656a.341.341 0 0 0 .458-.16.343.343 0 0 0-.16-.458L1.132 5.474 4.538 3.83l10.3 4.972.006.006v4.115a.343.343 0 0 0 .492.31l2.565-1.24a.343.343 0 0 0 .194-.308V7.547l3.163-1.527v11.7z" fill="#000"/><path d="M3.516 16.39l-1.56-.753a.343.343 0 1 0-.298.618l1.56.753a.343.343 0 0 0 .298-.618zm1.435-.934L1.958 14.01a.343.343 0 0 0-.298.617l2.993 1.445a.342.342 0 0 0 .458-.16.343.343 0 0 0-.16-.457z" fill="#000"/></svg>