<svg width="16" height="16" fill="none" xmlns="http://www.w3.org/2000/svg"><path d="M14.316 4.21a.667.667 0 0 0-.31.89A6.674 6.674 0 0 1 8 14.666 6.674 6.674 0 0 1 1.334 8 6.674 6.674 0 0 1 8 1.333a6.59 6.59 0 0 1 4.139 1.439.667.667 0 1 0 .83-1.044A8.013 8.013 0 0 0 8 0C3.589 0 0 3.589 0 8s3.589 8 8 8 8-3.589 8-8a7.918 7.918 0 0 0-.793-3.48.666.666 0 0 0-.89-.31z" fill="#000"/><path d="M8 2.667a.667.667 0 0 0-.667.666V8c0 .368.3.667.667.667h3.334a.667.667 0 0 0 0-1.334H8.667v-4A.667.667 0 0 0 8 2.667z" fill="#000"/></svg>