<svg width="64" height="36" fill="none" xmlns="http://www.w3.org/2000/svg"><path fill="#FFE500" d="M0 0h44v36H0z"/><circle cx="46" cy="18" r="18" fill="#FFE500"/><path fill-rule="evenodd" clip-rule="evenodd" d="M49.907 5.013c0 .008-.062.013-.16.013-.096 0-.158.006-.158.014 0 .007-.036.013-.08.013-.044 0-.08.006-.08.013 0 .007-.03.013-.066.013-.036 0-.066.006-.066.014 0 .007-.03.013-.066.013-.037 0-.067.006-.067.013 0 .007-.023.013-.053.013-.029 0-.053.006-.053.014 0 .007-.018.013-.04.013-.021 0-.04.006-.04.013 0 .007-.023.013-.052.013-.03 0-.053.006-.053.014 0 .007-.018.013-.04.013-.022 0-.04.006-.04.013 0 .007-.012.013-.026.013-.015 0-.027.006-.027.014 0 .007-.018.013-.04.013-.022 0-.04.006-.04.013 0 .007-.017.013-.04.013-.021 0-.04.006-.04.014 0 .007-.011.013-.026.013-.014 0-.026.006-.026.013 0 .007-.012.013-.027.013-.014 0-.026.006-.026.014 0 .007-.012.013-.027.013-.014 0-.026.006-.026.013 0 .007-.017.013-.037.013a.072.072 0 0 0-.056.027c-.01.014-.03.026-.043.026-.013 0-.023.006-.023.013 0 .008-.012.014-.027.014s-.027.006-.027.013c0 .007-.012.013-.026.013-.015 0-.027.006-.027.013 0 .008-.01.014-.023.014s-.032.012-.043.026c-.01.015-.028.027-.04.027-.011 0-.029.012-.04.026-.01.015-.028.027-.04.027-.01 0-.029.012-.04.026-.01.015-.026.027-.036.027-.01 0-.041.023-.07.053a.217.217 0 0 1-.065.052c-.018 0-.345.327-.345.346a.217.217 0 0 1-.053.065c-.03.028-.053.059-.053.069 0 .01-.012.026-.027.037-.015.01-.026.028-.026.04 0 .011-.012.029-.027.04-.015.01-.026.029-.026.042 0 .013-.006.024-.014.024-.007 0-.013.011-.013.026s-.006.027-.013.027c-.008 0-.014.011-.014.026s-.006.027-.013.027c-.007 0-.013.011-.013.026s-.006.026-.013.026c-.008 0-.014.012-.014.027s-.006.026-.013.026c-.007 0-.013.018-.013.04 0 .022-.006.04-.013.04-.008 0-.014.018-.014.04 0 .021-.006.04-.013.04-.007 0-.013.017-.013.04 0 .02-.006.039-.014.039-.007 0-.013.03-.013.066 0 .036-.006.066-.013.066-.007 0-.013.03-.013.066 0 .037-.006.067-.014.067-.007 0-.013.04-.013.092 0 .053-.005.093-.013.093-.009 0-.013.124-.013.344 0 .221.004.345.013.345.008 0 .013.044.013.105 0 .062.006.106.014.106.007 0 .013.03.013.067 0 .036.006.066.013.066.007 0 .013.024.013.053 0 .029.006.053.014.053.007 0 .013.024.013.053 0 .029.006.053.013.053.007 0 .013.018.013.04 0 .021.006.04.014.04.007 0 .013.017.013.039s.006.04.013.04c.007 0 .013.012.013.026 0 .015.006.027.014.027.007 0 .013.017.013.04 0 .021.006.039.013.039.007 0 .013.012.013.026 0 .015.006.027.014.027.007 0 .013.012.013.026 0 .015.006.027.013.027.008 0 .014.018.014.04 0 .022.005.04.013.04.007 0 .013.01.013.023s.012.032.026.043c.015.01.027.03.027.042 0 .013.006.024.013.024.008 0 .014.012.014.026 0 .015.005.027.013.027.007 0 .013.01.013.023s.012.032.027.043c.014.01.026.028.026.04 0 .011.012.029.027.04.014.01.026.03.026.042 0 .013.006.024.013.024.008 0 .014.01.014.02 0 .012.018.039.04.06.021.02.04.043.04.052 0 .008.023.038.052.066.03.028.053.058.053.066 0 .018.46.477.478.477.018 0 .239.221.239.24 0 .008.017.031.04.051.021.02.04.047.04.059 0 .011.005.02.012.02.008 0 .014.011.014.024 0 .013.012.033.026.043.015.01.027.03.027.043 0 .013.006.023.013.023.007 0 .013.012.013.027 0 .014.006.026.014.026.007 0 .013.012.013.027 0 .014.006.026.013.026.007 0 .013.012.013.027 0 .014.006.026.014.026.007 0 .013.012.013.027 0 .014.006.026.013.026.007 0 .013.018.013.04 0 .022.006.04.014.04.007 0 .013.012.013.026 0 .015.006.027.013.027.007 0 .013.018.013.04 0 .021.006.04.014.04.007 0 .013.017.013.039s.006.04.013.04c.008 0 .014.023.014.053 0 .029.005.052.013.052.007 0 .013.018.013.04 0 .022.006.04.013.04.008 0 .014.03.014.066 0 .037.005.066.013.066.007 0 .013.024.013.053 0 .03.006.053.013.053.008 0 .014.04.014.093s.005.093.013.093.013.048.013.119c0 .07.005.119.013.119s.014.052.014.13c0 .114-.004.131-.027.148-.014.01-.026.027-.026.037 0 .01-.018.035-.04.056-.022.02-.04.044-.04.052a.444.444 0 0 1-.133.133.216.216 0 0 0-.066.053c-.028.03-.059.053-.069.053-.01 0-.026.012-.037.026-.01.015-.029.027-.04.027s-.03.012-.04.027c-.01.014-.03.026-.042.026-.013 0-.024.006-.024.013 0 .008-.012.014-.026.014-.015 0-.027.005-.027.013 0 .007-.01.013-.024.013-.013 0-.032.012-.042.026-.01.015-.03.027-.043.027-.013 0-.024.006-.024.013 0 .007-.012.013-.026.013-.015 0-.027.006-.027.014 0 .007-.012.013-.026.013-.015 0-.027.006-.027.013 0 .007-.018.013-.04.013-.021 0-.04.006-.04.014 0 .007-.011.013-.026.013-.014 0-.026.006-.026.013 0 .007-.012.013-.027.013-.014 0-.026.006-.026.014 0 .007-.012.013-.027.013-.014 0-.026.006-.026.013 0 .007-.012.013-.027.013s-.026.006-.026.013c0 .008-.018.014-.04.014-.022 0-.04.006-.04.013 0 .007-.012.013-.027.013-.014 0-.026.006-.026.014 0 .007-.018.013-.04.013-.022 0-.04.006-.04.013 0 .007-.012.013-.026.013-.015 0-.027.006-.027.013 0 .008-.018.014-.04.014-.021 0-.04.006-.04.013 0 .007-.017.013-.04.013-.021 0-.039.006-.039.013 0 .008-.018.014-.04.014-.022 0-.04.006-.04.013 0 .007-.011.013-.026.013s-.026.006-.026.013c0 .008-.018.014-.04.014-.022 0-.04.006-.04.013 0 .007-.018.013-.04.013-.022 0-.04.006-.04.013 0 .008-.018.014-.04.014-.021 0-.04.006-.04.013 0 .007-.017.013-.04.013-.021 0-.039.006-.039.013 0 .008-.018.014-.04.014-.022 0-.04.005-.04.013 0 .007-.017.013-.04.013-.021 0-.039.006-.039.013 0 .008-.012.014-.026.014-.015 0-.027.005-.027.013 0 .007-.018.013-.04.013-.022 0-.04.006-.04.013 0 .008-.012.014-.026.014-.015 0-.027.005-.027.013 0 .007-.012.013-.026.013-.015 0-.027.006-.027.013 0 .008-.012.014-.026.014-.015 0-.027.005-.027.013 0 .007-.01.013-.023.013s-.033.012-.043.026c-.01.015-.029.027-.04.027s-.03.012-.04.026c-.01.015-.03.027-.042.027-.013 0-.024.006-.024.013 0 .007-.01.013-.021.013-.012 0-.038.018-.059.04-.02.022-.044.04-.053.04-.008 0-.032.018-.053.04-.02.021-.044.04-.052.04s-.08.065-.16.145a.968.968 0 0 1-.165.146.02.02 0 0 0-.02.02.344.344 0 0 1-.08.099.412.412 0 0 0-.08.093.213.213 0 0 1-.053.066.218.218 0 0 0-.053.066c0 .009-.018.032-.04.053-.022.02-.04.045-.04.055 0 .01-.011.027-.026.037-.014.011-.026.029-.026.04 0 .012-.012.03-.027.04-.015.01-.027.028-.027.04 0 .011-.011.029-.026.04-.015.01-.026.028-.026.04 0 .01-.013.028-.027.039-.015.01-.027.03-.027.043 0 .013-.006.023-.013.023-.007 0-.013.01-.013.024 0 .013-.012.032-.027.042-.014.01-.026.03-.026.043 0 .013-.006.023-.013.023-.008 0-.014.012-.014.027 0 .014-.006.027-.013.027-.007 0-.013.011-.013.026 0 .014-.006.026-.014.026-.007 0-.013.012-.013.027 0 .014-.006.026-.013.026-.007 0-.013.012-.013.027 0 .014-.006.026-.014.026-.007 0-.013.012-.013.027 0 .014-.006.026-.013.026-.007 0-.013.012-.013.027 0 .014-.006.026-.014.026-.007 0-.013.012-.013.027 0 .014-.006.026-.013.026-.007 0-.013.012-.013.027 0 .014-.006.026-.014.026-.007 0-.013.012-.013.027 0 .014-.006.026-.013.026-.008 0-.013.012-.013.027 0 .014-.006.026-.014.026-.007 0-.013.018-.013.04 0 .022-.006.04-.013.04-.008 0-.014.011-.014.026s-.005.027-.013.027c-.007 0-.013.011-.013.026s-.006.026-.013.026c-.008 0-.014.018-.014.04 0 .022-.005.04-.013.04-.007 0-.013.012-.013.027 0 .014-.006.026-.013.026-.008 0-.014.018-.014.04 0 .021-.006.04-.013.04-.007 0-.013.017-.013.04 0 .021-.006.039-.013.039-.008 0-.014.018-.014.04 0 .021-.006.04-.013.04-.007 0-.013.017-.013.039s-.006.04-.013.04c-.008 0-.014.018-.014.04 0 .021-.006.04-.013.04-.007 0-.013.023-.013.052 0 .03-.006.053-.014.053-.007 0-.013.01-.013.02 0 .024-.084.113-.107.113-.008 0-.031.017-.052.04-.02.021-.044.039-.052.039a.3.3 0 0 0-.08.066.309.309 0 0 1-.08.066.309.309 0 0 0-.08.067.316.316 0 0 1-.079.066c-.018 0-.637.618-.637.636a.216.216 0 0 1-.053.066c-.03.028-.053.059-.053.068 0 .01-.012.027-.026.038-.015.01-.027.028-.027.04 0 .01-.012.029-.027.039-.014.01-.026.028-.026.04 0 .011-.012.029-.027.04-.014.01-.026.03-.026.042 0 .013-.006.024-.013.024-.008 0-.014.012-.014.026 0 .015-.006.027-.013.027-.007 0-.013.012-.013.026 0 .015-.006.027-.013.027-.008 0-.014.012-.014.026 0 .015-.006.027-.013.027-.007 0-.013.01-.013.023s-.012.032-.027.043c-.014.01-.026.03-.026.042 0 .013-.006.024-.014.024-.007 0-.013.012-.013.026 0 .015-.006.027-.013.027-.007 0-.013.012-.013.026 0 .015-.006.027-.014.027-.007 0-.013.012-.013.026 0 .015-.006.027-.013.027-.007 0-.013.01-.013.023s-.012.033-.027.043c-.014.01-.026.03-.026.043 0 .013-.006.023-.014.023-.007 0-.013.01-.013.024 0 .013-.012.032-.027.043-.014.01-.026.03-.026.042 0 .013-.006.024-.013.024-.008 0-.014.01-.014.023s-.011.032-.026.043c-.015.01-.027.03-.027.043 0 .012-.006.023-.013.023-.007 0-.013.01-.013.024 0 .013-.012.032-.027.042-.014.01-.026.029-.026.04s-.012.03-.027.04c-.014.01-.026.028-.026.04 0 .01-.012.029-.027.04-.014.01-.026.028-.026.039s-.012.03-.027.04c-.014.01-.026.03-.026.042 0 .013-.006.024-.014.024-.007 0-.013.01-.013.023s-.012.033-.026.043c-.015.01-.027.029-.027.04s-.012.029-.026.04c-.015.01-.027.028-.027.04 0 .01-.012.028-.026.039-.015.01-.027.028-.027.04 0 .011-.012.029-.026.04-.015.01-.027.028-.027.04 0 .01-.012.028-.027.039-.014.01-.026.028-.026.04 0 .011-.012.029-.027.04-.014.01-.026.028-.026.04 0 .01-.012.028-.027.039-.014.01-.026.028-.026.04 0 .01-.012.029-.027.04-.014.01-.026.028-.026.039s-.012.03-.027.04c-.014.01-.026.028-.026.04 0 .01-.012.029-.027.04-.014.01-.026.027-.026.039 0 .011-.012.03-.027.04-.014.01-.026.03-.026.042 0 .013-.006.024-.014.024-.007 0-.013.012-.013.026 0 .015-.006.027-.013.027-.008 0-.014.012-.014.026 0 .015-.005.027-.013.027-.007 0-.013.018-.013.04 0 .021-.006.04-.013.04-.008 0-.014.011-.014.026 0 .014-.006.026-.013.026-.007 0-.013.024-.013.053 0 .03-.006.053-.013.053-.008 0-.014.04-.014.093s-.005.092-.013.092c-.007 0-.013.036-.013.08 0 .044.006.08.013.08.008 0 .013.03.013.066 0 .036.006.066.014.066.007 0 .013.015.013.033 0 .036.104.152.136.152.01 0 .026.012.036.027.01.014.029.026.04.026s.03.012.04.027c.01.014.027.026.037.026.01 0 .041.024.07.053.027.03.056.053.064.053.02 0 .505.485.505.504 0 .009.018.032.04.052.022.02.04.045.04.055 0 .01.012.027.026.038.015.01.027.03.027.042 0 .013.006.024.013.024.008 0 .014.012.014.026 0 .015.005.027.013.027.007 0 .013.012.013.026 0 .015.006.027.013.027.008 0 .014.01.014.024 0 .012.012.032.026.042.015.01.027.027.027.037 0 .01.023.041.053.07.029.027.053.056.053.064 0 .02.22.24.24.24.007 0 .043.03.078.066a.302.302 0 0 0 .08.066c.008 0 .032.018.053.04.02.022.045.04.055.04.01 0 .027.012.037.026.011.015.029.027.04.027.012 0 .03.011.04.026.01.015.029.027.04.027s.03.011.04.026c.01.014.03.026.042.026.013 0 .024.006.024.014 0 .007.01.013.024.013.012 0 .032.012.042.026.01.015.03.027.043.027.013 0 .024.006.024.013 0 .007.012.013.026.013.015 0 .027.006.027.014 0 .007.012.013.026.013.015 0 .027.006.027.013 0 .007.012.013.026.013.015 0 .027.006.027.014 0 .007.012.013.026.013.015 0 .027.006.027.013 0 .007.012.013.026.013.015 0 .027.006.027.014 0 .007.012.013.026.013.015 0 .027.006.027.013 0 .007.012.013.026.013.015 0 .027.006.027.014 0 .007.018.013.04.013.022 0 .04.006.04.013 0 .007.012.013.026.013.015 0 .027.006.027.013 0 .008.011.014.026.014s.027.006.027.013c0 .007.017.013.04.013.021 0 .04.006.04.013 0 .008.017.014.039.014s.04.006.04.013c0 .007.012.013.026.013.015 0 .027.006.027.013 0 .008.018.014.04.014.021 0 .04.006.04.013 0 .007.017.013.04.013.021 0 .039.006.039.013 0 .008.018.014.04.014.022 0 .04.006.04.013 0 .007.023.013.053.013.029 0 .053.006.053.013 0 .008.018.014.04.014.021 0 .04.006.04.013 0 .007.023.013.052.013.03 0 .053.006.053.013 0 .008.024.014.053.014.03 0 .053.006.053.013 0 .007.024.013.053.013.03 0 .054.006.054.013 0 .008.023.014.053.014.029 0 .053.006.053.013 0 .007.03.013.066.013.036 0 .066.006.066.013 0 .007.024.013.053.013.03 0 .053.006.053.014 0 .007.024.013.053.013.03 0 .053.006.053.013 0 .008.024.013.053.013.03 0 .054.006.054.014 0 .007.023.013.053.013.029 0 .053.006.053.013 0 .008.018.013.04.013.021 0 .04.006.04.014 0 .007.023.013.052.013.03 0 .053.006.053.013 0 .007.024.013.053.013.03 0 .053.006.053.014 0 .007.024.013.053.013.03 0 .054.006.054.013 0 .007.024.013.053.013.029 0 .053.006.053.014 0 .007.024.013.053.013.029 0 .053.006.053.013 0 .007.018.013.04.013.022 0 .04.006.04.014 0 .007.017.013.04.013.021 0 .039.006.039.013 0 .007.018.013.04.013.022 0 .04.006.04.014 0 .007.012.013.026.013.015 0 .027.006.027.013 0 .007.017.013.04.013.021 0 .04.006.04.014 0 .007.011.013.026.013.014 0 .026.006.026.013 0 .007.012.013.027.013.014 0 .026.006.026.014 0 .007.012.013.027.013.014 0 .026.006.026.013 0 .007.012.013.027.013.014 0 .026.006.026.013 0 .008.012.014.027.014.014 0 .026.006.026.013 0 .007.012.013.027.013s.027.006.027.013c0 .008.01.014.023.014s.032.012.043.026c.01.015.028.027.04.027.01 0 .029.012.04.026.01.015.027.027.037.027.01 0 .035.017.055.04.02.021.044.039.053.039.008 0 .05.036.093.08a.344.344 0 0 0 .099.079c.011 0 .02.006.02.013 0 .007.012.013.027.013s.026.006.026.014c0 .007.012.013.027.013s.027.006.027.013c0 .007.01.013.023.013s.032.012.043.027c.01.014.028.026.04.026.011 0 .029.012.04.027.01.014.028.026.04.026.01 0 .029.012.039.027.01.014.027.026.037.026.01 0 .035.018.056.04.02.022.047.04.058.04.017 0 .021.014.021.066 0 .036-.006.066-.013.066-.007 0-.013.012-.013.027 0 .014-.006.026-.013.026-.008 0-.014.018-.014.04 0 .022-.006.04-.013.04-.007 0-.013.017-.013.04 0 .021-.006.039-.013.039-.008 0-.014.018-.014.04 0 .022-.006.04-.013.04-.007 0-.013.017-.013.04 0 .021-.006.039-.014.039-.007 0-.013.018-.013.04 0 .021-.006.04-.013.04-.007 0-.013.017-.013.04 0 .02-.006.039-.014.039-.007 0-.013.024-.013.053 0 .029-.006.053-.013.053-.007 0-.013.018-.013.04 0 .021-.006.04-.014.04-.007 0-.013.017-.013.039s-.006.04-.013.04c-.007 0-.013.017-.013.04 0 .021-.006.04-.014.04-.007 0-.013.023-.013.052 0 .03-.006.053-.013.053-.007 0-.013.018-.013.04 0 .022-.006.04-.014.04-.007 0-.013.023-.013.052 0 .03-.006.053-.013.053-.008 0-.014.024-.014.053 0 .03-.005.053-.013.053-.007 0-.013.024-.013.053 0 .03-.006.053-.013.053-.008 0-.014.024-.014.053 0 .03-.006.053-.013.053-.007 0-.013.024-.013.053 0 .03-.006.053-.013.053-.008 0-.014.03-.014.066 0 .037-.005.067-.013.067-.007 0-.013.023-.013.052 0 .03.006.053.013.053.008 0 .013.018.013.04 0 .022.006.04.014.04.007 0 .013.018.013.04 0 .021.006.04.013.04.008 0 .014.017.014.04 0 .02.005.039.013.039.007 0 .013.012.013.026 0 .015.006.027.013.027.008 0 .014.012.014.026 0 .015.006.027.013.027.007 0 .013.018.013.04 0 .021.006.04.013.04.008 0 .014.011.014.026 0 .014.006.026.013.026.007 0 .013.012.013.027 0 .014.006.026.013.026.008 0 .014.012.014.027 0 .014.006.026.013.026.007 0 .013.01.013.024 0 .013.012.032.027.042.014.01.026.028.026.038 0 .01.018.035.04.055.022.02.04.044.04.052 0 .009.042.057.093.107.05.05.093.1.093.112 0 .011.005.02.013.02.007 0 .013.012.013.027 0 .014.006.026.013.026.008 0 .014.024.014.053 0 .03.005.053.013.053s.013.058.013.146-.005.145-.013.145c-.022 0-.017.198.005.22.022.022.167.027.167.006 0-.008.012-.014.027-.014.014 0 .026-.006.026-.013 0-.007.01-.013.02-.013.025 0 .113-.085.113-.11 0-.009.012-.025.026-.036.015-.01.027-.03.027-.042 0-.013.006-.024.013-.024.008 0 .014-.012.014-.027 0-.014.005-.026.013-.026.007 0 .013-.012.013-.026 0-.015.006-.027.013-.027.008 0 .014-.024.014-.053 0-.029.005-.053.013-.053.007 0 .013-.03.013-.066 0-.037.006-.066.013-.066.008 0 .014-.03.014-.067 0-.036.006-.066.013-.066.007 0 .013-.035.013-.08 0-.043.006-.079.013-.079.008 0 .014-.03.014-.066 0-.036.006-.066.013-.066.007 0 .013-.03.013-.066 0-.037.006-.066.013-.066.008 0 .014-.03.014-.067 0-.036.006-.066.013-.066.007 0 .013-.03.013-.066 0-.036.006-.066.014-.066.007 0 .013-.03.013-.066 0-.037.006-.067.013-.067.007 0 .013-.03.013-.066 0-.036.006-.066.014-.066.007 0 .013-.024.013-.053 0-.03.006-.053.013-.053.007 0 .013-.03.013-.066 0-.037.006-.066.014-.066.007 0 .013-.03.013-.067 0-.036.006-.066.013-.066.007 0 .013-.024.013-.053 0-.029.006-.053.014-.053.007 0 .013-.024.013-.053 0-.029.006-.053.013-.053.007 0 .013-.03.013-.066 0-.036.006-.066.014-.066.007 0 .013-.024.013-.053 0-.03.006-.053.013-.053.008 0 .014-.018.014-.04 0-.022.005-.04.013-.04.007 0 .013-.023.013-.052 0-.03.006-.053.013-.053.008 0 .014-.024.014-.053 0-.03.006-.053.013-.053.007 0 .013-.018.013-.04 0-.022.006-.04.013-.04.008 0 .014-.018.014-.04 0-.021.005-.04.013-.04.007 0 .013-.017.013-.039s.006-.04.013-.04c.008 0 .014-.012.014-.026 0-.015.006-.027.013-.027.007 0 .013-.015.013-.033 0-.034.078-.126.106-.126.022 0 .106.09.106.113 0 .01.006.02.014.02.007 0 .013.018.013.04 0 .021.006.04.013.04.008 0 .013.052.013.132 0 .08.006.132.014.132s.013.07.013.186c0 .114.005.185.013.185s.013.04.013.093c0 .052.006.092.014.092.007 0 .013.018.013.04 0 .022.006.04.013.04.008 0 .014.012.014.026 0 .015.005.027.013.027.007 0 .013.012.013.026 0 .015.006.027.013.027.008 0 .014.009.014.02 0 .026.112.139.139.139.01 0 .02.006.02.013 0 .007.018.013.04.013.021 0 .04.006.04.013 0 .008.048.014.119.014h.119v-.067c0-.036.006-.066.013-.066.008 0 .014-.03.014-.066 0-.037.006-.066.013-.066.007 0 .013-.036.013-.08 0-.044.006-.08.013-.08.008 0 .014-.039.014-.092s.005-.093.013-.093.013-.048.013-.119c0-.07.005-.119.013-.119.009 0 .014-.163.014-.463 0-.3-.005-.464-.014-.464-.007 0-.013-.03-.013-.066 0-.037-.006-.066-.013-.066-.007 0-.013-.018-.013-.04 0-.022-.006-.04-.014-.04-.007 0-.013-.018-.013-.04 0-.021-.006-.04-.013-.04-.008 0-.014-.011-.014-.026 0-.014-.005-.026-.013-.026-.007 0-.013-.012-.013-.027 0-.014-.006-.026-.013-.026-.008 0-.014-.01-.014-.021 0-.012-.017-.038-.04-.058-.021-.02-.04-.044-.04-.052a.86.86 0 0 0-.186-.187.215.215 0 0 1-.065-.053c-.028-.029-.06-.053-.072-.053-.011 0-.02-.006-.02-.013 0-.007-.012-.013-.025-.013-.013 0-.032-.012-.042-.027-.01-.014-.03-.026-.043-.026-.013 0-.024-.006-.024-.014 0-.007-.011-.013-.026-.013s-.027-.006-.027-.013c0-.007-.011-.013-.026-.013s-.027-.006-.027-.013c0-.008-.012-.014-.026-.014-.015 0-.027-.006-.027-.013 0-.007-.018-.013-.04-.013-.021 0-.04-.006-.04-.013 0-.008-.011-.014-.026-.014-.014 0-.026-.006-.026-.013 0-.007-.018-.013-.04-.013-.022 0-.04-.006-.04-.013 0-.008-.018-.014-.04-.014-.022 0-.04-.006-.04-.013 0-.007-.017-.013-.04-.013-.021 0-.04-.006-.04-.013 0-.008-.017-.014-.039-.014s-.04-.006-.04-.013c0-.007-.018-.013-.04-.013-.021 0-.04-.006-.04-.013 0-.008-.017-.014-.039-.014s-.04-.006-.04-.013c0-.007-.012-.013-.026-.013-.015 0-.027-.006-.027-.013 0-.008-.012-.014-.026-.014-.015 0-.027-.006-.027-.013 0-.007-.012-.013-.026-.013-.015 0-.027-.006-.027-.013 0-.008-.012-.014-.026-.014-.015 0-.027-.006-.027-.013 0-.007-.012-.013-.026-.013-.015 0-.027-.006-.027-.013 0-.007-.012-.013-.027-.013-.014 0-.026-.006-.026-.014 0-.007-.01-.013-.024-.013-.013 0-.032-.012-.042-.026-.01-.015-.03-.027-.043-.027-.013 0-.024-.006-.024-.013 0-.008-.012-.013-.026-.013-.015 0-.027-.006-.027-.014 0-.007-.018-.013-.04-.013-.021 0-.04-.006-.04-.013 0-.007-.017-.013-.04-.013-.021 0-.039-.006-.039-.014 0-.007-.018-.013-.04-.013-.022 0-.04-.006-.04-.013 0-.007-.017-.013-.04-.013-.021 0-.04-.006-.04-.014 0-.007-.011-.013-.026-.013-.014 0-.026-.006-.026-.013 0-.007-.012-.013-.027-.013-.014 0-.026-.006-.026-.014 0-.007-.018-.013-.04-.013-.022 0-.04-.006-.04-.013 0-.007-.012-.013-.026-.013-.015 0-.027-.006-.027-.014 0-.007-.012-.013-.026-.013-.015 0-.027-.006-.027-.013 0-.007-.018-.013-.04-.013-.022 0-.04-.006-.04-.014 0-.007-.011-.013-.026-.013s-.026-.006-.026-.013c0-.007-.012-.013-.027-.013s-.027-.006-.027-.014c0-.007-.011-.013-.026-.013s-.027-.006-.027-.013c0-.007-.011-.013-.026-.013s-.027-.006-.027-.013c0-.008-.012-.014-.026-.014-.015 0-.027-.006-.027-.013 0-.007-.012-.013-.026-.013-.015 0-.027-.006-.027-.013 0-.008-.012-.014-.026-.014-.015 0-.027-.006-.027-.013 0-.007-.018-.013-.04-.013-.021 0-.04-.006-.04-.013 0-.008-.011-.014-.026-.014s-.026-.006-.026-.013c0-.007-.012-.013-.027-.013s-.026-.006-.026-.013c0-.008-.012-.014-.027-.014s-.026-.006-.026-.013c0-.007-.011-.013-.024-.013-.013 0-.032-.012-.043-.026-.01-.015-.03-.027-.043-.027-.013 0-.023-.006-.023-.013 0-.008-.012-.014-.027-.014-.014 0-.026-.005-.026-.013 0-.007-.01-.013-.024-.013-.013 0-.032-.012-.042-.026-.011-.015-.03-.027-.043-.027-.013 0-.024-.006-.024-.013 0-.008-.01-.013-.024-.013-.012 0-.032-.012-.042-.027-.01-.015-.03-.026-.043-.026-.013 0-.023-.006-.023-.014 0-.007-.011-.013-.024-.013-.013 0-.032-.012-.043-.026-.01-.015-.028-.027-.04-.027-.011 0-.029-.012-.04-.026-.01-.015-.03-.027-.042-.027-.013 0-.024-.006-.024-.013 0-.007-.01-.013-.023-.013s-.032-.012-.043-.027c-.01-.014-.03-.026-.043-.026-.013 0-.023-.006-.023-.014 0-.007-.01-.013-.024-.013-.013 0-.032-.012-.043-.026-.01-.015-.028-.027-.04-.027-.01 0-.029-.012-.04-.026-.01-.015-.028-.027-.039-.027s-.03-.012-.04-.026c-.01-.015-.027-.027-.036-.027-.021 0-.216-.192-.216-.213 0-.008-.018-.031-.04-.052-.021-.02-.04-.046-.04-.058 0-.011-.005-.02-.013-.02-.007 0-.013-.012-.013-.024 0-.013-.012-.033-.026-.043-.015-.01-.027-.029-.027-.04s-.012-.03-.026-.04c-.015-.01-.027-.028-.027-.04 0-.01-.012-.029-.026-.039-.015-.01-.027-.03-.027-.043 0-.013-.006-.023-.013-.023-.008 0-.014-.01-.014-.024 0-.013-.012-.032-.026-.042-.015-.01-.027-.029-.027-.04 0-.012-.011-.03-.026-.04-.015-.01-.027-.03-.027-.042 0-.014-.006-.024-.013-.024-.007 0-.013-.01-.013-.024 0-.013-.012-.032-.027-.042-.014-.01-.026-.03-.026-.043 0-.013-.006-.024-.014-.024-.007 0-.013-.01-.013-.023s-.012-.032-.026-.043c-.015-.01-.027-.028-.027-.04 0-.01-.012-.029-.026-.04-.015-.01-.027-.027-.027-.039 0-.011-.012-.03-.026-.04-.015-.01-.027-.028-.027-.04 0-.01-.012-.029-.026-.04-.015-.01-.027-.027-.027-.039 0-.011-.012-.029-.027-.04-.014-.01-.026-.028-.026-.04 0-.01-.012-.029-.026-.039-.015-.01-.027-.028-.027-.04 0-.011-.012-.029-.027-.04-.014-.01-.026-.027-.026-.037 0-.01-.024-.04-.053-.068a.215.215 0 0 1-.053-.066.873.873 0 0 0-.187-.186c-.008 0-.023-.009-.034-.02-.018-.017-.018-.022 0-.04.011-.01.028-.02.038-.02.01 0 .026-.011.037-.026.01-.014.03-.026.043-.026.013 0 .023-.006.023-.014 0-.007.01-.013.024-.013.013 0 .032-.012.043-.026.01-.015.028-.027.04-.027.01 0 .029-.012.04-.026.01-.015.027-.027.039-.027.011 0 .03-.012.04-.026.01-.015.028-.027.04-.027.01 0 .029-.012.04-.026.01-.015.028-.027.039-.027s.03-.012.04-.026c.01-.015.027-.027.037-.027.01 0 .035-.017.056-.04.02-.021.044-.04.052-.04.009 0 .039-.023.067-.052a.214.214 0 0 1 .066-.053.543.543 0 0 0 .106-.093.55.55 0 0 1 .107-.092c.02 0 .053-.034.053-.053 0-.008.035-.05.08-.093a.412.412 0 0 0 .079-.093c0-.009.018-.032.04-.053.021-.02.04-.046.04-.058 0-.012.005-.021.013-.021.007 0 .013-.012.013-.027 0-.014.006-.026.013-.026.007 0 .013-.024.013-.053 0-.03.006-.053.014-.053.007 0 .013-.012.013-.027 0-.014.006-.026.013-.026.008 0 .013-.012.013-.026 0-.015.006-.027.014-.027.007 0 .013-.012.013-.026 0-.015.006-.027.013-.027.008 0 .014-.012.014-.027 0-.014.005-.026.013-.026.007 0 .013-.01.013-.024 0-.012.012-.032.026-.042.015-.01.027-.027.027-.036 0-.021.405-.428.426-.428.008 0 .031-.017.052-.04.02-.021.045-.04.055-.04.01 0 .027-.011.037-.026.01-.014.03-.026.043-.026.013 0 .024-.006.024-.013 0-.008.012-.014.026-.014.015 0 .027-.006.027-.013 0-.007.012-.013.026-.013.015 0 .027-.006.027-.013 0-.008.012-.014.026-.014.015 0 .027-.005.027-.013 0-.007.012-.013.026-.013.015 0 .027-.006.027-.013 0-.008.012-.013.026-.013.015 0 .027-.006.027-.014 0-.007.012-.013.027-.013.014 0 .026-.006.026-.013 0-.007.012-.013.026-.013.015 0 .027-.006.027-.014 0-.007.012-.013.027-.013.014 0 .026-.006.026-.013 0-.007.012-.013.027-.013.014 0 .026-.006.026-.014 0-.007.018-.013.04-.013.022 0 .04-.006.04-.013 0-.007.012-.013.026-.013.015 0 .027-.006.027-.014 0-.007.018-.013.04-.013.021 0 .04-.006.04-.013 0-.007.017-.013.04-.013.021 0 .039-.006.039-.014 0-.007.018-.013.04-.013.022 0 .04-.006.04-.013 0-.007.017-.013.04-.013.021 0 .04-.006.04-.014 0-.007.023-.013.052-.013.03 0 .053-.006.053-.013 0-.007.018-.013.04-.013.022 0 .04-.006.04-.013 0-.008.024-.014.053-.014.029 0 .053-.006.053-.013 0-.007.024-.013.053-.013.03 0 .053-.006.053-.013 0-.008.018-.014.04-.014.022 0 .04-.006.04-.013 0-.007.023-.013.053-.013.029 0 .053-.006.053-.013 0-.008.018-.014.04-.014.021 0 .04-.006.04-.013 0-.007.017-.013.039-.013s.04-.006.04-.013c0-.008.018-.014.04-.014.021 0 .04-.006.04-.013 0-.007.011-.013.026-.013s.026-.006.026-.013c0-.008.012-.014.027-.014.014 0 .026-.006.026-.013 0-.007.012-.013.027-.013s.026-.006.026-.013c0-.008.012-.014.027-.014s.027-.006.027-.013c0-.007.012-.013.026-.013.015 0 .027-.006.027-.013 0-.008.012-.014.026-.014.02 0 .027.01.027.04 0 .022-.006.04-.014.04-.007 0-.013.016-.013.037 0 .021-.01.044-.026.056-.015.01-.027.028-.027.04 0 .01-.012.029-.026.04-.015.01-.027.026-.027.035a.416.416 0 0 1-.133.136.215.215 0 0 0-.066.053c-.028.03-.058.053-.066.053-.01 0-.033.018-.053.04-.02.022-.046.04-.056.04-.01 0-.027.012-.037.026-.01.015-.029.027-.04.027s-.03.012-.04.026c-.01.015-.03.026-.042.026-.013 0-.024.006-.024.014 0 .007-.012.013-.026.013-.015 0-.027.006-.027.013 0 .008-.01.014-.024.014-.013 0-.032.011-.042.026-.01.014-.03.026-.043.026-.013 0-.024.006-.024.014 0 .007-.012.013-.026.013-.015 0-.027.006-.027.013 0 .008-.012.013-.026.013-.015 0-.027.006-.027.014 0 .007-.012.013-.026.013-.015 0-.027.006-.027.013 0 .007-.018.013-.04.013-.022 0-.04.006-.04.014 0 .007-.011.013-.026.013-.014 0-.026.006-.026.013 0 .007-.012.013-.027.013s-.026.006-.026.014c0 .007-.012.013-.027.013s-.027.006-.027.013c0 .007-.011.013-.026.013s-.027.006-.027.014c0 .007-.011.013-.026.013s-.027.006-.027.013c0 .007-.012.013-.026.013-.015 0-.027.006-.027.014 0 .007-.012.013-.026.013-.015 0-.027.006-.027.013 0 .007-.012.013-.026.013-.015 0-.027.006-.027.014 0 .007-.012.013-.026.013-.015 0-.027.006-.027.013 0 .007-.012.013-.026.013-.015 0-.027.006-.027.014 0 .007-.012.013-.026.013-.015 0-.027.006-.027.013 0 .007-.012.013-.026.013-.015 0-.027.006-.027.013 0 .008-.012.014-.026.014-.015 0-.027.006-.027.013 0 .007-.012.013-.027.013-.014 0-.026.006-.026.013 0 .008-.01.014-.024.014-.013 0-.032.012-.042.026-.011.015-.03.027-.043.027-.013 0-.024.006-.024.013 0 .007-.01.013-.023.013s-.033.012-.043.027c-.01.014-.029.026-.04.026s-.03.012-.04.026c-.01.015-.028.027-.04.027-.01 0-.029.012-.04.026-.01.015-.028.027-.039.027s-.03.012-.04.027c-.01.014-.03.026-.042.026-.014 0-.024.006-.024.013 0 .008-.01.013-.024.013-.013 0-.032.012-.042.027-.01.014-.027.026-.037.026a.601.601 0 0 0-.162.16c0 .008-.036.05-.08.092-.073.072-.08.083-.08.135 0 .043.008.063.027.077.015.01.026.028.026.04 0 .01.012.029.027.04.015.01.027.028.027.039s.012.03.026.04c.015.01.027.028.027.04 0 .01.012.029.026.04.015.01.027.028.027.039s.012.03.026.04c.015.01.027.028.027.04 0 .01.012.029.026.04.015.01.027.026.027.036 0 .01.018.035.04.056.022.02.04.045.04.055 0 .01.011.027.026.037.014.011.026.029.026.04 0 .012.012.03.027.04.014.01.026.027.026.037 0 .01.018.035.04.056.022.02.04.044.04.053 0 .008.018.032.04.053.022.02.04.045.04.055 0 .01.012.027.026.037.015.01.027.027.027.038 0 .01.018.035.04.055.021.02.04.044.04.053 0 .009.017.033.039.053.022.02.04.044.04.053 0 .009.018.032.04.053.021.02.04.045.04.055 0 .01.011.027.026.037.015.011.027.028.027.038 0 .01.017.035.04.055.021.02.039.044.039.053 0 .009.018.033.04.053.022.02.04.044.04.053 0 .009.018.033.04.053.021.02.04.044.04.053 0 .009.017.033.039.053.022.02.04.044.04.053 0 .008.024.038.053.066.029.028.053.058.053.067 0 .008.018.032.04.052.022.02.04.045.04.053 0 .009.017.033.04.053.021.02.039.044.039.053 0 .009.024.038.053.066.03.028.053.058.053.067 0 .008.024.038.053.066.03.028.053.058.053.066s.024.038.053.066c.03.028.053.058.053.066 0 .009.03.044.067.08a.313.313 0 0 1 .066.079c0 .008.072.085.16.172.087.087.158.166.158.176 0 .01.012.026.027.036a.072.072 0 0 1 .026.056c0 .02.006.037.014.037s.013.064.013.166c0 .17.01.205.056.205.01 0 .026.012.037.026.01.015.028.027.04.027.01 0 .029.012.04.026.01.015.029.027.042.027.013 0 .024.006.024.013 0 .007.01.013.023.013s.032.012.043.027a.072.072 0 0 0 .056.026c.02 0 .037.006.037.013 0 .008.012.014.026.014.015 0 .027.006.027.013 0 .007.018.013.04.013.021 0 .04.006.04.013 0 .008.017.014.04.014.021 0 .039.006.039.013 0 .007.024.013.053.013.03 0 .053.006.053.013 0 .008.012.014.027.014.014 0 .026.006.026.013 0 .007.018.013.04.013.022 0 .04.006.04.013 0 .008.018.014.04.014.021 0 .04.006.04.013 0 .007.011.013.026.013.014 0 .026.006.026.013 0 .008.012.014.027.014.014 0 .026.006.026.013 0 .007.012.013.027.013.014 0 .026.006.026.013 0 .008.012.014.027.014s.026.006.026.013c0 .007.012.013.027.013s.026.006.026.013c0 .007.012.013.027.013s.026.006.026.014c0 .007.011.013.024.013.013 0 .032.012.043.026.01.015.028.027.04.027.011 0 .029.012.04.026.01.015.028.027.04.027.01 0 .029.012.039.026.01.015.027.027.037.027.01 0 .047.03.082.066a.307.307 0 0 0 .08.066c.02 0 .053.034.053.053 0 .008.036.05.08.093.043.043.08.086.08.096 0 .01.011.026.026.036.014.01.026.029.026.04s.012.03.027.04c.014.01.026.03.026.042 0 .013.006.024.014.024.007 0 .013.012.013.026 0 .015.006.027.013.027.007 0 .013.012.013.026 0 .015.006.027.014.027.007 0 .013.012.013.026 0 .015.006.027.013.027.007 0 .013.018.013.04 0 .021.006.04.014.04.007 0 .013.017.013.04 0 .02.006.039.013.039.007 0 .013.024.013.053 0 .029.006.053.014.053.007 0 .013.03.013.066 0 .036.006.066.013.066.008 0 .014.04.014.093s.005.092.013.092.013.12.013.332c0 .211-.005.33-.013.33s-.013.058-.013.146-.006.146-.014.146-.013.049-.013.12c0 .07-.005.118-.013.118s-.014.036-.014.08c0 .044-.005.08-.013.08-.007 0-.013.034-.013.079 0 .044-.006.08-.013.08-.008 0-.014.029-.014.065 0 .037-.006.066-.013.066-.007 0-.013.018-.013.04 0 .022-.006.04-.013.04-.008 0-.014.015-.014.034 0 .021-.015.05-.04.072-.021.02-.04.047-.04.058 0 .012-.01.021-.023.021s-.032.012-.043.027c-.01.014-.03.026-.042.026-.013 0-.024.006-.024.014 0 .007-.012.013-.026.013-.015 0-.027.006-.027.013 0 .007-.024.013-.053.013-.03 0-.053.006-.053.014 0 .007-.03.013-.066.013-.037 0-.067.006-.067.013 0 .007-.018.013-.04.013-.021 0-.04-.006-.04-.013 0-.007-.035-.013-.079-.013s-.08-.006-.08-.014c0-.007-.023-.013-.053-.013-.029 0-.053-.006-.053-.013 0-.007-.011-.013-.026-.013s-.027-.006-.027-.013c0-.008-.01-.014-.023-.014s-.032-.012-.043-.026c-.01-.015-.027-.027-.036-.027-.02 0-.216-.192-.216-.212 0-.015-.032-.053-.045-.053-.005 0-.008.018-.008.04 0 .022-.006.04-.013.04-.008 0-.013.03-.013.066 0 .037-.006.066-.014.066-.007 0-.013.03-.013.067 0 .036-.006.066-.013.066-.008 0-.014.03-.014.066 0 .036-.005.066-.013.066-.007 0-.013.03-.013.066 0 .037-.006.067-.013.067-.008 0-.014.03-.014.066 0 .036-.006.066-.013.066-.007 0-.013.035-.013.08 0 .044-.006.079-.013.079-.008 0-.014.03-.014.066 0 .037-.006.066-.013.066-.007 0-.013.036-.013.08 0 .044-.006.08-.013.08-.008 0-.014.029-.014.065 0 .037-.006.067-.013.067-.007 0-.013.024-.013.053 0 .029-.006.053-.013.053-.008 0-.014.017-.014.04 0 .021-.006.039-.013.039-.007 0-.013.012-.013.026 0 .015-.006.027-.014.027-.007 0-.013.018-.013.04 0 .022-.006.04-.013.04-.007 0-.013.01-.013.023s-.012.032-.027.043c-.014.01-.026.03-.026.042 0 .013-.006.024-.014.024-.007 0-.013.009-.013.02 0 .024-.244.271-.269.271-.01 0-.025.012-.036.027-.01.014-.03.026-.043.026-.013 0-.023.006-.023.013 0 .008-.018.014-.04.014-.022 0-.04.006-.04.013 0 .007-.024.013-.053.013-.029 0-.053.006-.053.013 0 .008-.035.014-.08.014-.044 0-.079-.006-.079-.014 0-.007-.018-.013-.04-.013-.022 0-.04-.006-.04-.013 0-.007-.012-.013-.026-.013-.015 0-.027-.006-.027-.014 0-.007-.009-.013-.02-.013a.499.499 0 0 1-.165-.165c0-.011-.006-.02-.014-.02-.007 0-.013-.012-.013-.027 0-.014-.006-.026-.013-.026-.007 0-.013-.018-.013-.04 0-.022-.006-.04-.014-.04s-.013-.053-.013-.132c0-.08.005-.133.013-.133s.014-.048.014-.119c0-.07-.006-.119-.014-.119-.007 0-.013-.015-.013-.034 0-.024-.023-.056-.08-.111a.373.373 0 0 1-.08-.096c0-.01-.011-.026-.026-.037-.014-.01-.026-.028-.026-.04 0-.011-.012-.029-.027-.04-.014-.01-.026-.03-.026-.042 0-.013-.006-.024-.014-.024-.007 0-.013-.011-.013-.026s-.006-.026-.013-.026c-.007 0-.013-.012-.013-.027s-.006-.027-.014-.027c-.007 0-.013-.011-.013-.026s-.006-.027-.013-.027c-.007 0-.013-.011-.013-.026 0-.014-.006-.026-.014-.026-.007 0-.013-.012-.013-.027 0-.014-.006-.026-.013-.026-.007 0-.013-.018-.013-.04 0-.022-.006-.04-.014-.04-.007 0-.013-.012-.013-.026 0-.015-.006-.027-.013-.027-.007 0-.013-.012-.013-.026 0-.015-.006-.027-.014-.027-.007 0-.013-.012-.013-.026 0-.015-.003-.027-.007-.027a.36.36 0 0 0-.099.107c0 .008-.03.043-.066.079a.303.303 0 0 0-.067.08c0 .008-.018.032-.04.052-.021.02-.04.045-.04.055 0 .01-.011.027-.026.038-.014.01-.026.027-.026.037 0 .01-.018.035-.04.055-.022.02-.04.046-.04.056 0 .01-.012.027-.026.037-.015.01-.027.03-.027.043 0 .013-.006.023-.013.023-.008 0-.013.01-.013.024 0 .013-.012.032-.027.043-.014.01-.026.03-.026.042 0 .013-.006.024-.014.024-.007 0-.013.012-.013.026 0 .015-.006.027-.013.027-.008 0-.014.01-.014.023s-.012.032-.026.043c-.015.01-.027.03-.027.043 0 .012-.006.023-.013.023-.007 0-.013.012-.013.027 0 .014-.006.026-.013.026-.008 0-.014.012-.014.027 0 .014-.006.026-.013.026-.007 0-.013.012-.013.026 0 .015-.006.027-.013.027-.008 0-.014.018-.014.04 0 .022-.006.04-.013.04-.007 0-.013.011-.013.026s-.006.026-.014.026c-.007 0-.013.012-.013.027 0 .014-.006.026-.013.026-.007 0-.013.018-.013.04 0 .022-.006.04-.014.04-.007 0-.013.018-.013.04 0 .021-.006.04-.013.04-.007 0-.013.017-.013.039s-.006.04-.014.04c-.007 0-.013.024-.013.053 0 .029-.006.053-.013.053-.007 0-.013.024-.013.053 0 .029-.006.053-.014.053-.007 0-.013.035-.013.08 0 .043-.006.079-.013.079-.009 0-.013.092-.013.251s.005.252.013.252c.007 0 .013.035.013.08v.079h.623c.407 0 .624.004.624.013s.583.013 1.724.013c1.14 0 1.724.005 1.724.013 0 .009.3.014.876.014.866 0 .875 0 .875-.027 0-.014.006-.026.013-.026.007 0 .013-.012.013-.027s.006-.026.014-.026c.007 0 .013-.018.013-.04 0-.022.006-.04.013-.04.008 0 .013-.018.013-.04 0-.021.006-.04.014-.04.007 0 .013-.017.013-.039s.006-.04.013-.04c.008 0 .014-.018.014-.04 0-.021.005-.04.013-.04.007 0 .013-.017.013-.039s.006-.04.013-.04c.008 0 .014-.018.014-.04 0-.021.006-.04.013-.04.007 0 .013-.017.013-.039s.006-.04.013-.04c.008 0 .014-.017.014-.04 0-.021.005-.039.013-.039.007 0 .013-.018.013-.04 0-.021.006-.04.013-.04.008 0 .014-.017.014-.04 0-.021.006-.039.013-.039.007 0 .013-.018.013-.04 0-.021.006-.04.013-.04.008 0 .014-.017.014-.039s.006-.04.013-.04c.007 0 .013-.018.013-.04 0-.021.006-.04.014-.04.007 0 .013-.011.013-.026 0-.014.006-.026.013-.026.007 0 .013-.018.013-.04 0-.022.006-.04.014-.04.007 0 .013-.018.013-.04 0-.021.006-.04.013-.04.007 0 .013-.017.013-.039s.006-.04.014-.04c.007 0 .013-.017.013-.04 0-.021.006-.039.013-.039.007 0 .013-.018.013-.04 0-.022.006-.04.014-.04.007 0 .013-.017.013-.04 0-.021.006-.039.013-.039.007 0 .013-.018.013-.04 0-.021.006-.04.014-.04.007 0 .013-.017.013-.04 0-.02.006-.039.013-.039.008 0 .013-.018.013-.04 0-.021.006-.04.014-.04.007 0 .013-.017.013-.039s.006-.04.013-.04c.008 0 .014-.024.014-.053 0-.029.005-.053.013-.053.007 0 .013-.017.013-.04 0-.021.006-.04.013-.04.008 0 .014-.017.014-.039s.005-.04.013-.04c.007 0 .013-.017.013-.04 0-.021.006-.039.013-.039.008 0 .014-.018.014-.04 0-.021.006-.04.013-.04.007 0 .013-.017.013-.04 0-.021.006-.039.013-.039.008 0 .014-.018.014-.04 0-.021.006-.04.013-.04.007 0 .013-.017.013-.039s.006-.04.014-.04c.007 0 .013-.018.013-.04 0-.021.006-.04.013-.04.007 0 .013-.023.013-.052 0-.03.006-.053.014-.053.007 0 .013-.018.013-.04 0-.022.006-.04.013-.04.007 0 .013-.018.013-.04 0-.021.006-.039.014-.039.007 0 .013-.018.013-.04 0-.022.006-.04.013-.04.007 0 .013-.023.013-.052 0-.03.006-.053.014-.053.007 0 .013-.018.013-.04 0-.022.006-.04.013-.04.007 0 .013-.024.013-.053 0-.029.006-.053.014-.053.007 0 .013-.018.013-.04 0-.021.006-.04.013-.04.008 0 .013-.017.013-.039s.006-.04.014-.04c.007 0 .013-.018.013-.04 0-.021.006-.04.013-.04.008 0 .014-.023.014-.052 0-.03.005-.053.013-.053.007 0 .013-.024.013-.053 0-.03.006-.053.013-.053.008 0 .014-.024.014-.053 0-.03.006-.053.013-.053.007 0 .013-.03.013-.066 0-.037.006-.066.013-.066.008 0 .014-.03.014-.067 0-.036.006-.066.013-.066.007 0 .013-.03.013-.066 0-.036.006-.066.013-.066.008 0 .014-.035.014-.08 0-.044.005-.08.013-.08s.013-.039.013-.092.006-.093.013-.093c.008 0 .014-.035.014-.079s.006-.08.013-.08c.008 0 .013-.04.013-.092 0-.053.006-.093.014-.093.007 0 .013-.04.013-.092 0-.053.005-.093.013-.093s.013-.04.013-.093.006-.093.014-.093c.007 0 .013-.04.013-.092 0-.053.005-.093.013-.093s.013-.04.013-.093c0-.052.006-.092.014-.092.007 0 .013-.036.013-.08 0-.044.006-.08.013-.08.008 0 .013-.039.013-.092s.006-.093.014-.093c.007 0 .013-.03.013-.066 0-.036.006-.066.013-.066.008 0 .013-.035.013-.08 0-.044.006-.079.014-.079.007 0 .013-.035.013-.08 0-.043.006-.079.013-.079.008 0 .013-.024.013-.053 0-.029.006-.053.014-.053.007 0 .013-.023.013-.053 0-.029.006-.053.013-.053.008 0 .014-.03.014-.066 0-.036.005-.066.013-.066.007 0 .013-.024.013-.053 0-.03.006-.053.013-.053.008 0 .014-.03.014-.066 0-.037.006-.066.013-.066.007 0 .013-.03.013-.067 0-.036.006-.066.013-.066.008 0 .014-.03.014-.066 0-.036.006-.066.013-.066.007 0 .013-.03.013-.066 0-.037.006-.067.013-.067.008 0 .014-.03.014-.066 0-.036.006-.066.013-.066.007 0 .013-.035.013-.08 0-.044.006-.079.014-.079.007 0 .013-.03.013-.066 0-.037.006-.066.013-.066.007 0 .013-.036.013-.08 0-.044.006-.08.014-.08.007 0 .013-.035.013-.079s.006-.08.013-.08c.007 0 .013-.029.013-.065 0-.037.006-.067.014-.067.007 0 .013-.04.013-.092 0-.053.005-.093.013-.093s.013-.035.013-.08c0-.044.006-.079.014-.079.007 0 .013-.035.013-.08 0-.043.006-.079.013-.079.008 0 .013-.03.013-.066 0-.036.006-.066.014-.066.007 0 .013-.04.013-.093s.006-.093.013-.093c.008 0 .014-.057.014-.145s.005-.146.013-.146.013-.11.013-.304c0-.195-.005-.305-.013-.305s-.014-.057-.014-.146c0-.088-.005-.145-.013-.145-.007 0-.013-.04-.013-.093s-.006-.093-.013-.093c-.008 0-.014-.03-.014-.066 0-.036-.006-.066-.013-.066-.007 0-.013-.03-.013-.066 0-.037-.006-.067-.013-.067-.008 0-.014-.023-.014-.053 0-.029-.006-.052-.013-.052-.007 0-.013-.012-.013-.027 0-.014.006-.026.013-.026.008 0 .013-.049.013-.12 0-.07.006-.119.014-.119.007 0 .013-.044.013-.106s.005-.106.013-.106.013-.048.013-.119c0-.07.006-.119.014-.119.007 0 .013-.03.013-.066 0-.037-.006-.066-.013-.066-.008 0-.014-.011-.014-.024 0-.013-.012-.032-.026-.043-.015-.01-.027-.03-.027-.042 0-.013-.006-.024-.013-.024-.007 0-.013-.01-.013-.023s-.012-.032-.027-.043c-.014-.01-.026-.028-.026-.04 0-.011-.012-.029-.027-.04-.014-.01-.026-.03-.026-.042 0-.013-.006-.024-.014-.024-.007 0-.013-.01-.013-.023s-.012-.032-.026-.043c-.015-.01-.027-.03-.027-.043 0-.013-.006-.023-.013-.023-.007 0-.013-.01-.013-.024 0-.013-.012-.032-.027-.042-.014-.01-.026-.03-.026-.043 0-.013-.006-.023-.014-.023-.007 0-.013-.011-.013-.024 0-.013-.012-.032-.026-.043-.015-.01-.027-.028-.027-.04 0-.01-.012-.029-.027-.04-.014-.01-.026-.029-.026-.042 0-.013-.006-.023-.013-.023-.008 0-.014-.011-.014-.024 0-.013-.011-.032-.026-.043-.015-.01-.027-.028-.027-.04 0-.01-.012-.029-.026-.039-.015-.01-.027-.03-.027-.043 0-.013-.006-.023-.013-.023-.007 0-.013-.01-.013-.024 0-.013-.012-.032-.027-.042-.014-.01-.026-.029-.026-.04s-.012-.03-.027-.04c-.014-.01-.026-.03-.026-.043 0-.012-.006-.023-.014-.023-.007 0-.013-.01-.013-.024 0-.013-.012-.032-.026-.042-.015-.01-.027-.029-.027-.04s-.012-.03-.026-.04c-.015-.01-.027-.03-.027-.042 0-.013-.006-.024-.013-.024-.007 0-.013-.01-.013-.024 0-.012-.012-.032-.027-.042-.015-.01-.026-.028-.026-.04 0-.011-.012-.03-.027-.04-.015-.01-.027-.03-.027-.042 0-.013-.005-.024-.013-.024-.007 0-.013-.01-.013-.023s-.012-.032-.027-.043c-.014-.01-.026-.028-.026-.04 0-.011-.012-.029-.027-.04-.014-.01-.026-.028-.026-.04 0-.01-.012-.028-.027-.039-.014-.01-.026-.03-.026-.043 0-.012-.006-.023-.013-.023-.008 0-.014-.01-.014-.024 0-.013-.012-.032-.026-.042-.015-.01-.027-.029-.027-.04s-.012-.03-.026-.04c-.015-.01-.027-.028-.027-.04 0-.01-.012-.029-.026-.04-.015-.01-.027-.028-.027-.039s-.012-.03-.026-.04c-.015-.01-.027-.028-.027-.04 0-.01-.012-.029-.026-.04-.015-.01-.027-.029-.027-.042 0-.013-.006-.023-.013-.023-.008 0-.014-.01-.014-.024 0-.013-.011-.032-.026-.042-.015-.011-.027-.029-.027-.04 0-.012-.011-.03-.026-.04-.015-.01-.027-.028-.027-.04 0-.011-.012-.029-.026-.04-.015-.01-.027-.028-.027-.04 0-.01-.012-.028-.026-.039-.015-.01-.027-.028-.027-.04 0-.011-.012-.029-.026-.04-.015-.01-.027-.028-.027-.04 0-.01-.012-.028-.026-.039-.015-.01-.027-.027-.027-.037 0-.01-.018-.035-.04-.056-.021-.02-.04-.045-.04-.055 0-.01-.011-.027-.026-.037-.015-.01-.026-.028-.026-.04 0-.011-.012-.03-.027-.04-.015-.01-.026-.027-.026-.037 0-.01-.018-.035-.04-.055-.022-.02-.04-.045-.04-.053 0-.009-.018-.033-.04-.053-.022-.02-.04-.044-.04-.053a.218.218 0 0 0-.053-.066.216.216 0 0 1-.053-.066.65.65 0 0 0-.16-.16c-.02 0-.105-.089-.105-.112 0-.01-.006-.02-.013-.02-.008 0-.014-.012-.014-.026 0-.015-.005-.027-.013-.027-.007 0-.013-.018-.013-.04 0-.021-.006-.04-.013-.04-.008 0-.014-.017-.014-.04 0-.02-.006-.039-.013-.039-.007 0-.013-.03-.013-.066 0-.036-.006-.066-.013-.066-.008 0-.014-.058-.014-.146s-.005-.146-.013-.146-.013-.048-.013-.119c0-.07.005-.119.013-.119.007 0 .013-.035.013-.08 0-.043.006-.079.014-.079.007 0 .013-.035.013-.08 0-.043.006-.079.013-.079.008 0 .013-.053.013-.132 0-.08.006-.133.014-.133s.013-.088.013-.238.005-.238.013-.238.013-.024.013-.053c0-.03.006-.053.014-.053.007 0 .013-.024.013-.053 0-.03.006-.053.013-.053.008 0 .014-.03.014-.066 0-.037.005-.066.013-.066s.013-.058.013-.146-.005-.146-.013-.146-.014-.04-.014-.092c0-.053.006-.093.014-.093.007 0 .013-.017.013-.037 0-.022.011-.045.026-.056.015-.01.027-.027.027-.037 0-.03.063-.082.099-.082.018 0 .034-.006.034-.013 0-.008.018-.013.04-.013.021 0 .04-.006.04-.014 0-.007.011-.013.026-.013.014 0 .026-.006.026-.013 0-.008.018-.014.04-.014.022 0 .04-.005.04-.013 0-.007.018-.013.04-.013.022 0 .04-.006.04-.013 0-.007.011-.013.026-.013s.027-.006.027-.014c0-.007.017-.013.04-.013.021 0 .04-.006.04-.013 0-.008.017-.013.039-.013s.04-.006.04-.014c0-.007.012-.013.026-.013.015 0 .027-.006.027-.013 0-.007.018-.013.04-.013.021 0 .04-.006.04-.014 0-.007.015-.013.034-.013.021 0 .049-.015.071-.04.02-.021.044-.04.053-.04.02 0 .133-.114.133-.135 0-.01.012-.026.027-.037.014-.01.026-.028.026-.04 0-.01.012-.028.027-.039a.072.072 0 0 0 .026-.056c0-.02.006-.037.014-.037.007 0 .013-.03.013-.066 0-.036.006-.066.013-.066.007 0 .013-.012.013-.026 0-.015-.006-.027-.013-.027-.007 0-.013-.024-.013-.053 0-.03-.006-.053-.014-.053-.007 0-.013-.012-.013-.026 0-.015-.006-.027-.013-.027-.007 0-.013-.012-.013-.026 0-.015-.006-.027-.014-.027-.007 0-.013-.009-.013-.02a.551.551 0 0 0-.106-.125.553.553 0 0 1-.106-.126c0-.011-.006-.02-.013-.02-.008 0-.014-.021-.014-.047 0-.05.048-.112.086-.112.014 0 .02-.013.02-.04 0-.022-.005-.04-.013-.04-.007 0-.013-.017-.013-.04 0-.021-.006-.039-.013-.039-.008 0-.014-.01-.014-.02 0-.028-.032-.06-.058-.06-.031 0-.027-.069.005-.092.015-.01.027-.028.027-.04 0-.011.012-.029.026-.04.015-.01.027-.03.027-.042 0-.013.006-.024.013-.024.008 0 .014-.04.014-.092 0-.053-.006-.093-.014-.093-.007 0-.013-.01-.013-.02 0-.028-.032-.06-.059-.06-.012 0-.02-.01-.02-.026 0-.015-.007-.027-.014-.027s-.013-.011-.013-.026-.006-.027-.013-.027c-.008 0-.014-.033-.014-.073v-.073l.12-.118a.675.675 0 0 0 .12-.139c0-.011.005-.02.012-.02.008 0 .014-.012.014-.027 0-.014.006-.026.013-.026.007 0 .013-.018.013-.04 0-.022-.006-.04-.013-.04-.007 0-.013-.009-.013-.02 0-.026-.113-.139-.14-.139-.01 0-.02-.006-.02-.013 0-.007-.011-.013-.026-.013s-.027-.006-.027-.013c0-.008-.01-.014-.023-.014s-.032-.011-.043-.026c-.01-.015-.03-.026-.043-.026-.013 0-.023-.006-.023-.014 0-.007-.01-.013-.024-.013-.013 0-.032-.012-.042-.026-.011-.015-.028-.027-.037-.027a.488.488 0 0 1-.11-.093.538.538 0 0 0-.106-.092c-.009 0-.032-.018-.053-.04-.02-.022-.046-.04-.058-.04-.012 0-.021-.006-.021-.013 0-.007-.01-.013-.024-.013-.013 0-.032-.012-.042-.027-.011-.014-.029-.026-.04-.026-.012 0-.03-.012-.04-.027-.01-.014-.03-.026-.043-.026-.013 0-.023-.006-.023-.013 0-.008-.012-.014-.027-.014-.014 0-.026-.006-.026-.013 0-.007-.011-.013-.024-.013-.013 0-.032-.012-.043-.027-.01-.014-.03-.026-.042-.026-.013 0-.024-.006-.024-.013 0-.008-.012-.014-.027-.014-.023 0-.026-.008-.026-.066 0-.036.006-.066.013-.066.008 0 .013-.053.013-.132 0-.08.006-.133.014-.133.007 0 .013-.04.013-.093 0-.052-.006-.092-.013-.092-.008 0-.014-.017-.014-.037a.072.072 0 0 0-.026-.056c-.015-.01-.027-.027-.027-.037 0-.01-.023-.04-.053-.069-.029-.028-.053-.058-.053-.066s-.024-.038-.053-.066c-.029-.028-.053-.06-.053-.07 0-.009-.012-.026-.026-.036-.015-.01-.027-.029-.027-.04s-.012-.03-.026-.04c-.015-.01-.027-.028-.027-.04 0-.01-.012-.029-.026-.04-.015-.01-.027-.026-.027-.036 0-.01-.018-.035-.04-.056-.022-.02-.04-.045-.04-.055 0-.01-.012-.027-.026-.037-.015-.011-.027-.029-.027-.04 0-.012-.011-.03-.026-.04-.015-.01-.027-.028-.027-.04 0-.011-.012-.029-.026-.04-.015-.01-.027-.027-.027-.037 0-.01-.018-.035-.04-.055-.021-.02-.04-.044-.04-.053a.208.208 0 0 0-.052-.066.216.216 0 0 1-.053-.066c0-.019-.195-.212-.213-.212a.216.216 0 0 1-.066-.053c-.028-.03-.059-.053-.069-.053-.01 0-.027-.012-.037-.027-.01-.014-.028-.026-.04-.026-.011 0-.03-.012-.04-.027-.01-.014-.03-.026-.042-.026-.013 0-.024-.006-.024-.013 0-.008-.012-.014-.026-.014-.015 0-.027-.006-.027-.013 0-.007-.01-.013-.023-.013-.014 0-.033-.012-.043-.027a.072.072 0 0 0-.056-.026c-.02 0-.037-.006-.037-.013 0-.008-.012-.014-.027-.014-.014 0-.026-.006-.026-.013 0-.007-.018-.013-.04-.013-.022 0-.04-.006-.04-.013 0-.008-.018-.014-.04-.014-.021 0-.04-.006-.04-.013 0-.007-.03-.013-.066-.013-.036 0-.066-.006-.066-.013 0-.008-.049-.014-.12-.014-.07 0-.119-.005-.119-.013S50.12 5 50.04 5c-.08 0-.133.005-.133.013zm-10.726 7.105c-.024.025-.043.054-.043.065 0 .011-.006.02-.014.02s-.013.093-.013.252.005.252.013.252c.009 0 .014.145.014.41s.004.41.013.41c.008 0 .013.146.013.411s.005.41.013.41c.009 0 .014.146.014.411s.004.41.013.41c.008 0 .013.146.013.411s.005.41.014.41c.008 0 .013.146.013.411s.005.41.013.41c.007 0 .013.012.013.027 0 .014-.006.026-.013.026-.007 0-.013.021-.013.047 0 .05-.047.112-.086.112-.011 0-.02.006-.02.014 0 .007-.012.013-.027.013-.014 0-.026.006-.026.013 0 .008-.045.013-.107.013-.061 0-.106-.005-.106-.013s-.044-.013-.106-.013-.106-.006-.106-.014c0-.007-.048-.013-.12-.013-.07 0-.118-.005-.118-.013s-.045-.013-.107-.013c-.061 0-.106-.006-.106-.013 0-.008-.048-.014-.12-.014-.07 0-.118-.005-.118-.013s-.05-.013-.12-.013c-.07 0-.12-.005-.12-.013s-.043-.014-.105-.014-.106-.005-.106-.013-.05-.013-.12-.013c-.07 0-.12-.005-.12-.013s-.048-.014-.119-.014c-.07 0-.119-.005-.119-.013s-.044-.013-.106-.013-.106-.006-.106-.013c0-.008-.049-.014-.12-.014-.07 0-.119-.005-.119-.013 0-.007-.044-.013-.106-.013s-.106-.006-.106-.013c0-.008-.049-.013-.12-.013-.07 0-.119-.006-.119-.014s-.048-.013-.12-.013c-.07 0-.119-.005-.119-.013s-.044-.014-.106-.014-.106-.005-.106-.013c0-.007-.04-.013-.093-.013s-.092.006-.092.013c0 .008-.01.014-.02.014-.012 0-.042.02-.067.045-.041.042-.046.054-.046.12 0 .04.006.073.013.073.008 0 .014.01.014.023s.011.033.026.043c.015.01.027.028.027.04 0 .011.011.029.026.04.015.01.027.028.027.04 0 .01.012.029.026.039.015.01.027.028.027.04 0 .011.012.029.026.04.015.01.027.028.027.04 0 .01.012.028.026.039.015.01.027.028.027.04 0 .01.012.029.026.04.015.01.027.027.027.037 0 .01.018.035.04.055.022.02.04.045.04.055 0 .01.011.027.026.038.014.01.026.028.026.04 0 .01.012.029.027.04.015.01.026.028.026.039s.012.03.027.04c.015.01.027.028.027.04 0 .01.012.028.026.039.015.01.027.028.027.04 0 .011.012.029.026.04.015.01.027.028.027.04 0 .01.012.028.026.039.015.01.027.028.027.04 0 .011.012.029.026.04.015.01.027.028.027.04 0 .01.012.028.026.039.015.01.027.027.027.037 0 .01.018.035.04.055.022.02.04.046.04.056 0 .01.011.027.026.037.014.01.026.029.026.04s.012.03.027.04c.015.01.027.028.027.04 0 .01.011.029.026.04.015.01.027.027.027.039 0 .011.011.03.026.04.015.01.027.028.027.04 0 .01.011.029.026.039.015.01.027.028.027.04 0 .011.012.029.026.04.015.01.027.028.027.04 0 .01.012.028.026.039.015.01.027.027.027.037 0 .01.018.035.04.056.021.02.04.045.04.055 0 .01.011.027.026.037.014.01.026.029.026.04s.012.03.027.04c.014.01.026.028.026.04 0 .01.012.029.027.04.015.01.026.028.026.039s.012.03.027.04c.015.01.026.028.026.04 0 .01.012.029.027.04.015.01.027.027.027.039 0 .011.012.029.026.04.015.01.027.028.027.04 0 .01.012.028.026.039.019.013.027.034.027.07 0 .027-.006.05-.014.05-.007 0-.013.011-.013.026 0 .014-.006.026-.013.026-.007 0-.013.012-.013.027 0 .017-.01.026-.027.026-.014 0-.026.006-.026.013 0 .008-.012.014-.027.014-.014 0-.026.005-.026.013 0 .007-.024.013-.053.013-.03 0-.054.006-.054.013 0 .008-.023.014-.053.014-.029 0-.053.006-.053.013 0 .007-.018.013-.04.013-.021 0-.04.006-.04.013 0 .008-.023.014-.052.014-.03 0-.053.006-.053.013 0 .007-.024.013-.053.013-.03 0-.053.006-.053.013 0 .008-.024.014-.053.014-.03 0-.053.005-.053.013 0 .007-.019.013-.04.013-.022 0-.04.006-.04.013 0 .008-.024.013-.053.013-.03 0-.053.006-.053.014 0 .007-.024.013-.053.013-.03 0-.053.006-.053.013 0 .007-.018.013-.04.013-.022 0-.04.006-.04.014 0 .007-.024.013-.053.013-.03 0-.053.006-.053.013 0 .007-.024.013-.053.013-.03 0-.053.006-.053.014 0 .007-.018.013-.04.013-.022 0-.04.006-.04.013 0 .007-.024.013-.053.013-.029 0-.053.006-.053.014 0 .007-.024.013-.053.013-.029 0-.053.006-.053.013 0 .007-.018.013-.04.013-.022 0-.04.006-.04.014 0 .007-.023.013-.053.013-.029 0-.053.006-.053.013 0 .007-.023.013-.053.013-.029 0-.053.006-.053.014 0 .007-.024.013-.053.013-.029 0-.053.006-.053.013 0 .007-.018.013-.04.013-.022 0-.04.006-.04.013 0 .008-.023.014-.052.014-.03 0-.053.006-.053.013 0 .007-.024.013-.053.013-.03 0-.054.006-.054.013 0 .008-.017.014-.04.014-.021 0-.04.006-.04.013 0 .007-.023.013-.052.013-.03 0-.053.006-.053.013 0 .008-.024.014-.053.014-.03 0-.053.006-.053.013 0 .007-.018.013-.04.013-.022 0-.04.006-.04.013 0 .008-.024.014-.053.014-.03 0-.053.006-.053.013 0 .007-.024.013-.053.013-.03 0-.053.006-.053.013 0 .008-.018.014-.04.014-.022 0-.04.006-.04.013 0 .007-.024.013-.053.013-.029 0-.053.006-.053.013 0 .008-.024.014-.053.014-.029 0-.053.006-.053.013 0 .007-.024.013-.053.013-.03 0-.053.006-.053.013 0 .008-.018.014-.04.014-.022 0-.04.006-.04.013 0 .007-.023.013-.053.013-.029 0-.053.006-.053.013 0 .007-.024.013-.053.013-.029 0-.053.006-.053.014 0 .007-.018.013-.04.013-.021 0-.04.006-.04.013 0 .008-.023.013-.052.013-.03 0-.053.006-.053.014 0 .007-.024.013-.053.013-.03 0-.054.006-.054.013 0 .008-.017.013-.04.013-.021 0-.04.006-.04.014 0 .007-.023.013-.052.013-.03 0-.053.006-.053.013 0 .007-.024.013-.053.013-.03 0-.053.006-.053.014 0 .007-.018.013-.04.013-.022 0-.04.006-.04.013 0 .007-.024.013-.053.013-.03 0-.053.006-.053.014 0 .007-.024.013-.053.013-.03 0-.053.006-.053.013 0 .007-.024.013-.053.013-.03 0-.053.006-.053.014 0 .007-.018.013-.04.013-.022 0-.04.006-.04.013 0 .007-.024.013-.053.013-.03 0-.053.006-.053.014 0 .007-.024.013-.053.013-.03 0-.053.006-.053.013 0 .007-.018.013-.04.013-.022 0-.04.006-.04.014 0 .007-.011.013-.026.013s-.027.006-.027.013c0 .007-.012.013-.026.013-.017 0-.027.009-.027.024 0 .013-.012.032-.026.042-.039.028-.039.158 0 .186.014.01.026.03.026.042 0 .015.01.024.027.024.014 0 .026.006.026.013 0 .008.011.014.024.014.013 0 .032.011.043.026.01.014.03.026.042.026.013 0 .024.006.024.014 0 .007.012.013.026.013.015 0 .027.006.027.013 0 .008.012.013.027.013.014 0 .026.006.026.014 0 .007.01.013.024.013.013 0 .032.012.042.026.01.015.03.027.043.027.013 0 .024.006.024.013 0 .007.012.013.026.013.015 0 .027.006.027.014 0 .007.012.013.026.013.015 0 .027.006.027.013 0 .007.012.013.026.013.015 0 .027.006.027.014 0 .007.01.013.023.013s.033.012.043.026c.01.015.03.027.043.027.013 0 .024.006.024.013 0 .007.011.013.026.013s.026.006.026.014c0 .007.013.013.027.013.015 0 .027.006.027.013 0 .007.01.013.023.013s.032.012.043.027c.01.014.03.026.043.026.013 0 .023.006.023.013 0 .008.012.014.027.014.014 0 .026.006.026.013 0 .007.012.013.027.013.014 0 .026.006.026.013 0 .008.012.014.027.014.014 0 .026.006.026.013 0 .007.011.013.024.013.013 0 .032.012.043.027.01.014.03.026.042.026.013 0 .024.006.024.013 0 .008.012.014.026.014.015 0 .027.005.027.013 0 .007.012.013.027.013.014 0 .026.006.026.013 0 .008.01.014.024.014.013 0 .032.011.042.026.01.015.03.026.043.026.013 0 .024.006.024.014 0 .007.012.013.026.013.015 0 .027.006.027.013 0 .008.012.014.026.014.015 0 .027.005.027.013 0 .007.012.013.026.013.015 0 .027.006.027.013 0 .008.01.013.023.013.014 0 .033.012.043.027.01.014.03.026.043.026.013 0 .024.006.024.014 0 .007.011.013.026.013s.027.006.027.013c0 .007.011.013.026.013s.027.006.027.014c0 .007.01.013.023.013s.032.012.043.026c.01.015.03.027.043.027.013 0 .023.006.023.013 0 .007.012.013.027.013.014 0 .026.006.026.014 0 .007.012.013.027.013.014 0 .026.006.026.013 0 .007.012.013.027.013.014 0 .026.006.026.014 0 .007.011.013.024.013.013 0 .032.012.043.026.01.015.03.027.042.027.013 0 .024.006.024.013 0 .007.012.013.027.013.014 0 .026.006.026.013 0 .008.012.014.027.014.014 0 .026.006.026.013 0 .007.01.013.024.013.013 0 .032.012.042.027.011.014.03.026.043.026.013 0 .024.006.024.013 0 .008.012.014.026.014.015 0 .027.006.027.013 0 .007.012.013.026.013.015 0 .027.006.027.013 0 .008.01.014.023.014s.033.011.043.026c.01.015.03.026.043.026.013 0 .023.006.023.014 0 .007.012.013.027.013s.027.006.027.013c0 .008.012.014.026.014.015 0 .027.006.027.013 0 .007.011.013.026.013s.027.006.027.013c0 .008.01.014.023.014s.032.011.043.026c.01.014.03.026.043.026.013 0 .023.006.023.014 0 .007.012.013.027.013.014 0 .026.006.026.013 0 .007.012.013.027.013.014 0 .026.006.026.014 0 .007.011.013.024.013.013 0 .032.012.043.026.01.015.03.027.042.027.013 0 .024.006.024.013 0 .007.012.013.026.013.015 0 .027.006.027.014 0 .007.012.013.027.013.014 0 .026.006.026.013 0 .007.012.013.027.013.014 0 .026.006.026.014 0 .007.01.013.024.013.013 0 .032.012.042.026.011.015.03.027.043.027.013 0 .024.006.024.013 0 .007.012.013.026.013.015 0 .027.006.027.013 0 .008.012.014.026.014.015 0 .027.006.027.013 0 .007.01.013.023.013.014 0 .033.012.043.027.01.014.03.026.043.026.013 0 .023.006.023.013 0 .008.012.014.027.014s.027.006.027.013c0 .007.012.013.026.013.015 0 .027.006.027.013 0 .008.012.014.026.014.015 0 .027.006.027.013 0 .007.01.013.023.013s.032.012.043.027c.01.014.03.026.043.026.013 0 .023.006.023.013 0 .008.012.014.027.014.014 0 .026.006.026.013 0 .007.012.013.027.013.014 0 .026.006.026.013 0 .008.011.014.024.014.013 0 .032.011.043.026.01.015.03.026.042.026.013 0 .024.006.024.014 0 .007.012.013.027.013.014 0 .026.006.026.013 0 .008.01.013.02.013.027 0 .113.086.113.113 0 .01.006.02.013.02.008 0 .013.04.013.093s-.005.092-.013.092c-.007 0-.013.01-.013.024 0 .013-.012.032-.027.043-.014.01-.026.028-.026.04 0 .01-.012.028-.027.039-.014.01-.026.028-.026.04 0 .011-.012.029-.027.04-.014.01-.026.029-.026.042 0 .013-.006.024-.014.024-.007 0-.013.01-.013.023s-.012.032-.026.043c-.015.01-.027.028-.027.04 0 .01-.012.029-.026.04-.015.01-.027.029-.027.042 0 .013-.006.023-.013.023-.008 0-.014.011-.014.024 0 .013-.011.032-.026.043-.015.01-.027.028-.027.04 0 .01-.012.029-.026.04-.015.01-.027.027-.027.039 0 .011-.012.029-.026.04-.015.01-.027.03-.027.042 0 .013-.006.024-.013.024-.007 0-.013.01-.013.023s-.012.032-.027.043c-.014.01-.026.028-.026.04 0 .011-.012.029-.027.04-.014.01-.026.03-.026.042 0 .013-.006.024-.014.024-.007 0-.013.01-.013.023s-.012.032-.026.043c-.015.01-.027.028-.027.04 0 .01-.012.029-.026.04-.015.01-.027.028-.027.039s-.012.03-.026.04c-.015.01-.027.03-.027.042 0 .013-.006.024-.013.024-.008 0-.014.01-.014.023s-.012.033-.026.043c-.015.01-.027.029-.027.04s-.012.03-.026.04c-.015.01-.027.03-.027.042 0 .013-.006.024-.013.024-.007 0-.013.01-.013.023s-.012.032-.027.043c-.014.01-.026.028-.026.04 0 .011-.012.029-.027.04-.014.01-.026.028-.026.04 0 .01-.012.028-.027.039-.014.01-.026.03-.026.042 0 .014-.006.024-.014.024-.007 0-.013.01-.013.024 0 .013-.012.032-.026.042-.015.01-.027.029-.027.04s-.012.03-.026.04c-.015.01-.027.03-.027.042 0 .013-.006.024-.013.024-.008 0-.014.01-.014.023 0 .014-.011.033-.026.043-.015.01-.027.029-.027.04s-.011.03-.026.04c-.015.01-.027.03-.027.042 0 .013-.006.024-.013.024-.007 0-.013.01-.013.023s-.012.032-.027.043c-.014.01-.026.028-.026.04 0 .011-.012.029-.027.04-.014.01-.026.028-.026.04 0 .01-.012.028-.027.039-.014.01-.026.03-.026.043 0 .012-.006.023-.014.023-.007 0-.013.01-.013.024 0 .013-.012.032-.026.042-.015.01-.027.029-.027.04s-.012.03-.026.04c-.015.01-.027.03-.027.042 0 .013-.006.024-.013.024-.007 0-.013.01-.013.024 0 .012-.012.032-.027.042-.015.01-.026.029-.026.04s-.012.03-.027.04c-.015.01-.027.028-.027.04 0 .01-.011.029-.026.04-.015.01-.027.029-.027.042 0 .013-.006.023-.013.023-.007 0-.013.01-.013.024 0 .013-.012.032-.027.043-.014.01-.026.028-.026.04 0 .01-.012.029-.027.039-.014.01-.026.03-.026.043 0 .013-.006.023-.013.023-.008 0-.014.01-.014.024 0 .013-.012.032-.026.042-.015.01-.027.029-.027.04s-.012.03-.026.04c-.015.01-.027.028-.027.04 0 .01-.012.029-.026.04-.015.01-.027.029-.027.042 0 .013-.006.023-.013.023-.008 0-.013.011-.013.024 0 .013-.012.032-.027.043-.015.01-.026.028-.026.04 0 .01-.012.029-.027.04-.015.01-.027.027-.027.039 0 .011-.011.03-.026.04-.015.01-.027.03-.027.042 0 .013-.006.024-.013.024-.007 0-.013.012-.013.026 0 .015-.006.027-.013.027-.008 0-.014.018-.014.04 0 .021.006.04.014.04.007 0 .013.009.013.02 0 .027.032.059.059.059.011 0 .02.006.02.013 0 .007.03.013.067.013.036 0 .066-.006.066-.013 0-.007.018-.013.04-.013.022 0 .04-.006.04-.014 0-.007.023-.013.053-.013.029 0 .053-.006.053-.013 0-.007.024-.013.053-.013.029 0 .053-.006.053-.014 0-.007.018-.013.04-.013.022 0 .04-.006.04-.013 0-.007.023-.013.053-.013.029 0 .053-.006.053-.014 0-.007.023-.013.053-.013.029 0 .053-.006.053-.013 0-.007.017-.013.04-.013.021 0 .04-.006.04-.014 0-.007.023-.013.052-.013.03 0 .053-.006.053-.013 0-.007.024-.013.053-.013.03 0 .053-.006.053-.013 0-.008.018-.014.04-.014.022 0 .04-.006.04-.013 0-.007.024-.013.053-.013.03 0 .053-.006.053-.013 0-.008.024-.014.053-.014.03 0 .053-.006.053-.013 0-.007.018-.013.04-.013.022 0 .04-.006.04-.013 0-.008.024-.014.053-.014.029 0 .053-.006.053-.013 0-.007.024-.013.053-.013.03 0 .053-.006.053-.013 0-.008.018-.014.04-.014.022 0 .04-.005.04-.013 0-.007.023-.013.053-.013.029 0 .053-.006.053-.013 0-.008.023-.014.053-.014.029 0 .053-.006.053-.013 0-.007.018-.013.04-.013.021 0 .04-.006.04-.013 0-.008.023-.014.052-.014.03 0 .053-.006.053-.013 0-.007.018-.013.04-.013.022 0 .04-.006.04-.013 0-.008.024-.014.053-.014.03 0 .053-.005.053-.013 0-.007.024-.013.053-.013.03 0 .053-.006.053-.013 0-.008.018-.013.04-.013.022 0 .04-.006.04-.014 0-.007.024-.013.053-.013.029 0 .053-.006.053-.013 0-.007.024-.013.053-.013.03 0 .053-.006.053-.014 0-.007.018-.013.04-.013.022 0 .04-.006.04-.013 0-.007.023-.013.053-.013.029 0 .053-.006.053-.014 0-.007.024-.013.053-.013.029 0 .053-.006.053-.013 0-.007.018-.013.04-.013.021 0 .04-.006.04-.014 0-.007.023-.013.052-.013.03 0 .053-.006.053-.013 0-.007.024-.013.054-.013.029 0 .053-.006.053-.014 0-.007.017-.013.04-.013.021 0 .04-.006.04-.013 0-.007.023-.013.052-.013.03 0 .053-.006.053-.014 0-.007.024-.013.053-.013.03 0 .053-.006.053-.013 0-.007.018-.013.04-.013.022 0 .04-.006.04-.013 0-.008.024-.014.053-.014.03 0 .053-.006.053-.013 0-.007.024-.013.053-.013.03 0 .053-.006.053-.013 0-.008.018-.014.04-.014.022 0 .04-.006.04-.013 0-.007.024-.013.053-.013.029 0 .053-.006.053-.013 0-.008.024-.014.053-.014.03 0 .053-.006.053-.013 0-.007.018-.013.04-.013.022 0 .04-.006.04-.013 0-.008.023-.014.053-.014.029 0 .053-.006.053-.013 0-.007.023-.013.053-.013.029 0 .053-.006.053-.013 0-.008.018-.014.04-.014.021 0 .04-.006.04-.013 0-.007.023-.013.052-.013.03 0 .053-.006.053-.013 0-.008.018-.014.04-.014.022 0 .04-.006.04-.013 0-.007.024-.013.053-.013.03 0 .053-.006.053-.013 0-.008.024-.014.053-.014.03 0 .053-.006.053-.013 0-.007.018-.013.04-.013.022 0 .04-.006.04-.013 0-.007.024-.013.053-.013.029 0 .053-.006.053-.014 0-.007.024-.013.053-.013.03 0 .053-.006.053-.013 0-.008.018-.013.04-.013.022 0 .04-.006.04-.014 0-.007.023-.013.053-.013.029 0 .053-.006.053-.013 0-.008.023-.013.053-.013.029 0 .053.006.053.013 0 .007.009.013.02.013.026 0 .112.086.112.112 0 .011.006.02.014.02.007 0 .013.012.013.027 0 .014.006.026.013.026.007 0 .013.018.013.04 0 .022.006.04.014.04.007 0 .013.018.013.04 0 .021.006.04.013.04.008 0 .014.017.014.04 0 .02.005.039.013.039.007 0 .013.018.013.04 0 .021.006.04.013.04.008 0 .013.017.013.039s.006.04.014.04c.007 0 .013.018.013.04 0 .021.006.04.013.04.008 0 .014.011.014.026 0 .014.005.026.013.026.007 0 .013.018.013.04 0 .022.006.04.013.04.008 0 .014.017.014.04 0 .021.006.039.013.039.007 0 .013.018.013.04 0 .022.006.04.013.04.008 0 .014.017.014.04 0 .021.006.039.013.039.007 0 .013.018.013.04 0 .021.006.04.014.04.007 0 .013.017.013.04 0 .02.006.039.013.039.007 0 .013.012.013.026 0 .015.006.027.014.027.007 0 .013.018.013.04 0 .021.006.04.013.04.007 0 .013.017.013.039s.006.04.014.04c.007 0 .013.018.013.04 0 .021.006.04.013.04.007 0 .013.017.013.039s.006.04.014.04c.007 0 .013.017.013.04 0 .021.006.039.013.039.007 0 .013.018.013.04 0 .022.006.04.014.04.007 0 .013.011.013.026s.006.026.013.026c.008 0 .014.018.014.04 0 .022.005.04.013.04.007 0 .013.018.013.04 0 .021.006.04.013.04.008 0 .014.017.014.04 0 .02.006.039.013.039.007 0 .013.018.013.04 0 .021.006.04.013.04.008 0 .014.017.014.039s.005.04.013.04c.007 0 .013.012.013.026 0 .015.006.027.013.027.008 0 .014.018.014.04 0 .021.006.04.013.04.007 0 .013.017.013.039s.006.04.013.04c.008 0 .014.017.014.04 0 .021.006.039.013.039.007 0 .013.018.013.04 0 .022.006.04.014.04.007 0 .013.017.013.04 0 .021.006.039.013.039.007 0 .013.018.013.04 0 .021.006.04.014.04.007 0 .013.011.013.026 0 .014.006.026.013.026.007 0 .013.018.013.04 0 .022.006.04.014.04.007 0 .013.018.013.04 0 .021.006.04.013.04.007 0 .013.017.013.039s.006.04.014.04c.007 0 .013.017.013.04 0 .021.006.04.013.04.007 0 .013.011.013.026 0 .014.006.026.014.026.007 0 .013.01.013.02 0 .012.015.036.032.053.028.028.045.033.12.033.049 0 .087-.006.087-.013 0-.007.012-.013.026-.013.018 0 .027-.01.027-.027 0-.014.006-.026.013-.026.007 0 .013-.012.013-.027 0-.014.006-.026.014-.026.007 0 .013-.012.013-.027s.006-.026.013-.026c.007 0 .013-.012.013-.027 0-.014.006-.026.014-.026.007 0 .013-.012.013-.027 0-.014.006-.026.013-.026.007 0 .013-.012.013-.027 0-.014.006-.026.014-.026.007 0 .013-.012.013-.027 0-.014.006-.026.013-.026.007 0 .013-.012.013-.027 0-.014.006-.026.014-.026.007 0 .013-.012.013-.027 0-.014.006-.026.013-.026.008 0 .013-.012.013-.027 0-.014.006-.026.014-.026.007 0 .013-.012.013-.027 0-.014.006-.026.013-.026.008 0 .014-.012.014-.027 0-.014.005-.026.013-.026.007 0 .013-.012.013-.027 0-.014.006-.026.013-.026.008 0 .014-.012.014-.026 0-.015.006-.027.013-.027.007 0 .013-.012.013-.026 0-.015.006-.027.013-.027.008 0 .014-.012.014-.026 0-.015.006-.027.013-.027.007 0 .013-.012.013-.026 0-.015.006-.027.013-.027.008 0 .014-.012.014-.026 0-.015.006-.027.013-.027.007 0 .013-.018.013-.04 0-.021.006-.04.013-.04.008 0 .014-.011.014-.026 0-.014.006-.026.013-.026.007 0 .013-.012.013-.027 0-.014.006-.026.014-.026.007 0 .013-.012.013-.027 0-.014.006-.026.013-.026.007 0 .013-.012.013-.027 0-.014.006-.026.013-.026.008 0 .014-.012.014-.027 0-.014.006-.026.013-.026.007 0 .013-.012.013-.027 0-.014.006-.026.014-.026.007 0 .013-.012.013-.027 0-.014.006-.026.013-.026.007 0 .013-.012.013-.027 0-.014.006-.026.014-.026.007 0 .013-.012.013-.026 0-.015.006-.027.013-.027.008 0 .013-.012.013-.026 0-.015.006-.027.014-.027.007 0 .013-.012.013-.027 0-.014.006-.026.013-.026.008 0 .014-.012.014-.026 0-.015.005-.027.013-.027.007 0 .013-.012.013-.026 0-.015.006-.027.013-.027.008 0 .014-.012.014-.026 0-.015.005-.027.013-.027.007 0 .013-.012.013-.026 0-.015.006-.027.013-.027.008 0 .014-.012.014-.026 0-.015.005-.027.013-.027.007 0 .013-.012.013-.026 0-.015.006-.027.013-.027.008 0 .014-.012.014-.026 0-.015.006-.027.013-.027.007 0 .013-.012.013-.026 0-.015.006-.027.013-.027.008 0 .014-.012.014-.026 0-.015.006-.027.013-.027.007 0 .013-.018.013-.04 0-.021.006-.04.014-.04.007 0 .013-.011.013-.026 0-.014.006-.026.013-.026.007 0 .013-.012.013-.026 0-.015.006-.027.014-.027.007 0 .013-.012.013-.027 0-.014.006-.026.013-.026.007 0 .013-.012.013-.027 0-.014.006-.026.014-.026.007 0 .013-.012.013-.026 0-.015.006-.027.013-.027.007 0 .013-.012.013-.026 0-.015.006-.027.014-.027.007 0 .013-.012.013-.026 0-.015.006-.027.013-.027.007 0 .013-.012.013-.026 0-.015.006-.027.014-.027.007 0 .013-.012.013-.026 0-.015.006-.027.013-.027.008 0 .014-.012.014-.026 0-.015.005-.027.013-.027.007 0 .013-.012.013-.026 0-.015.006-.027.013-.027.008 0 .014-.012.014-.026 0-.015.005-.027.013-.027.007 0 .013-.012.013-.026 0-.015.006-.027.013-.027.008 0 .014-.012.014-.026 0-.015.006-.027.013-.027.007 0 .013-.011.013-.026s.006-.027.013-.027c.008 0 .014-.012.014-.026 0-.015.006-.027.013-.027.007 0 .013-.012.013-.026 0-.015.006-.027.013-.027.008 0 .014-.011.014-.026s.006-.026.013-.026c.007 0 .013-.012.013-.027 0-.014.006-.026.014-.026.007 0 .013-.018.013-.04 0-.022.006-.04.013-.04.007 0 .013-.012.013-.026 0-.015.006-.027.014-.027.007 0 .013-.012.013-.026 0-.015.006-.027.013-.027.007 0 .013-.012.013-.026 0-.015.006-.027.014-.027.007 0 .013-.012.013-.026 0-.015.006-.027.013-.027.007 0 .013-.012.013-.026 0-.015.006-.027.014-.027.007 0 .013-.012.013-.026 0-.015.006-.027.013-.027.007 0 .013-.012.013-.026 0-.015.006-.027.014-.027.007 0 .013-.012.013-.026 0-.015.006-.027.013-.027.008 0 .013-.012.013-.026 0-.015.006-.027.014-.027.007 0 .013-.012.013-.026 0-.015.006-.027.013-.027.008 0 .014-.012.014-.026 0-.015.006-.026.013-.026.007 0 .013-.012.013-.027s.006-.026.013-.026c.008 0 .014-.012.014-.027 0-.014.005-.026.013-.026.007 0 .013-.012.013-.027s.006-.026.013-.026c.008 0 .014-.012.014-.027s.006-.026.013-.026c.007 0 .013-.012.013-.027 0-.014.006-.026.013-.026.008 0 .014-.012.014-.027 0-.014.006-.026.013-.026.007 0 .013-.015.013-.034 0-.045-.106-.152-.152-.152-.018 0-.033-.006-.033-.013 0-.007-.024-.013-.054-.013-.029 0-.053.006-.053.013 0 .007-.009.013-.02.013-.023 0-.112.085-.112.107 0 .008-.018.032-.04.052-.022.02-.04.044-.04.053 0 .009-.024.038-.053.066-.029.028-.053.058-.053.067 0 .008-.018.032-.04.052-.022.02-.04.045-.04.053 0 .01-.017.033-.04.054-.021.02-.04.044-.04.052 0 .009-.023.039-.052.067-.03.028-.053.058-.053.066 0 .009-.018.032-.04.053-.022.02-.04.044-.04.052 0 .01-.024.039-.053.067-.029.028-.053.058-.053.067 0 .008-.018.032-.04.052-.022.02-.04.044-.04.053 0 .008-.023.038-.053.066-.029.028-.052.058-.052.067 0 .008-.018.032-.04.053-.022.02-.04.044-.04.052 0 .01-.018.033-.04.053-.022.02-.04.045-.04.053 0 .009-.024.039-.053.067a.216.216 0 0 0-.053.065.376.376 0 0 1-.072.087c-.07.07-.075.073-.146.073-.04 0-.074-.006-.074-.014 0-.007-.009-.013-.02-.013-.027 0-.086-.059-.086-.085 0-.012-.006-.02-.013-.02-.007 0-.013-.019-.013-.04 0-.022-.006-.04-.014-.04-.007 0-.013-.018-.013-.04 0-.022-.006-.04-.013-.04-.007 0-.013-.018-.013-.04 0-.021-.006-.039-.014-.039-.007 0-.013-.012-.013-.027 0-.014-.006-.026-.013-.026-.007 0-.013-.018-.013-.04 0-.022-.006-.04-.014-.04-.007 0-.013-.017-.013-.04 0-.021-.006-.039-.013-.039-.007 0-.013-.018-.013-.04 0-.021-.006-.04-.014-.04-.007 0-.013-.017-.013-.04 0-.02-.006-.039-.013-.039-.007 0-.013-.018-.013-.04 0-.021-.006-.04-.014-.04-.007 0-.013-.017-.013-.039s-.006-.04-.013-.04c-.008 0-.014-.018-.014-.04 0-.021-.005-.04-.013-.04-.007 0-.013-.017-.013-.039s-.006-.04-.013-.04c-.008 0-.014-.018-.014-.04 0-.021-.005-.039-.013-.039-.007 0-.013-.018-.013-.04 0-.022-.006-.04-.013-.04-.008 0-.014-.017-.014-.04 0-.021-.005-.039-.013-.039-.007 0-.013-.018-.013-.04 0-.021-.006-.04-.013-.04-.008 0-.014-.011-.014-.026 0-.014-.006-.026-.013-.026-.007 0-.013-.018-.013-.04 0-.022-.006-.04-.013-.04-.008 0-.014-.018-.014-.04 0-.021-.006-.04-.013-.04-.007 0-.013-.017-.013-.039s-.006-.04-.013-.04c-.008 0-.014-.018-.014-.04 0-.021-.006-.04-.013-.04-.007 0-.013-.017-.013-.039s-.006-.04-.014-.04c-.007 0-.013-.018-.013-.04 0-.021-.006-.04-.013-.04-.007 0-.013-.017-.013-.039s-.006-.04-.014-.04c-.007 0-.013-.009-.013-.02 0-.026-.086-.112-.112-.112-.011 0-.02-.006-.02-.013 0-.007-.024-.013-.052-.013-.029 0-.056-.008-.06-.017-.006-.013-.01-.013-.016 0-.004.01-.025.017-.046.017-.021 0-.039.006-.039.013 0 .007-.023.013-.053.013-.029 0-.053.006-.053.013 0 .008-.024.014-.053.014-.029 0-.053.005-.053.013 0 .007-.024.013-.053.013-.03 0-.053.006-.053.013 0 .008-.018.014-.04.014-.022 0-.04.005-.04.013 0 .007-.023.013-.053.013-.029 0-.053.006-.053.013 0 .008-.024.014-.053.014-.029 0-.053.006-.053.013 0 .007-.024.013-.053.013-.029 0-.053.006-.053.013 0 .008-.018.014-.04.014-.022 0-.04.005-.04.013 0 .007-.023.013-.053.013-.029 0-.052.006-.052.013 0 .008-.024.013-.054.013-.029 0-.053.006-.053.014 0 .007-.023.013-.053.013-.029 0-.053.006-.053.013 0 .007-.018.013-.04.013-.021 0-.04.006-.04.014 0 .007-.023.013-.052.013-.03 0-.053.006-.053.013 0 .007-.024.013-.053.013-.03 0-.053.006-.053.014 0 .007-.024.013-.054.013-.029 0-.053.006-.053.013 0 .007-.023.013-.053.013-.029 0-.053.006-.053.014 0 .007-.018.013-.04.013-.021 0-.04.006-.04.013 0 .007-.023.013-.052.013-.03 0-.053.006-.053.014 0 .007-.024.013-.053.013-.03 0-.053.006-.053.013 0 .007-.024.013-.053.013-.03 0-.054.006-.054.014 0 .007-.018.013-.04.013-.021 0-.04.006-.04.013 0 .007-.023.013-.052.013-.03 0-.053.006-.053.014 0 .007-.024.013-.053.013-.03 0-.053.006-.053.013 0 .007-.024.013-.053.013-.03 0-.053.006-.053.013 0 .008-.018.014-.04.014-.022 0-.04.006-.04.013 0 .007-.024.013-.053.013-.03 0-.053.006-.053.013 0 .008-.024.014-.053.014-.03 0-.053.006-.053.013 0 .007-.024.013-.053.013-.03 0-.053.006-.053.013 0 .008-.018.014-.04.014-.022 0-.04.006-.04.013 0 .007-.024.013-.053.013-.03 0-.053.006-.053.013 0 .008-.047.014-.113.014h-.113l-.06-.06c-.057-.057-.059-.061-.059-.142 0-.069.005-.087.027-.103.014-.01.026-.03.026-.043 0-.013.006-.023.013-.023.008 0 .014-.01.014-.024 0-.013.012-.032.026-.042.015-.01.027-.029.027-.04 0-.012.012-.03.026-.04.015-.01.027-.03.027-.042 0-.013.006-.024.013-.024.007 0 .013-.01.013-.024 0-.013.012-.032.027-.042.014-.01.026-.029.026-.04s.012-.03.027-.04c.014-.01.026-.028.026-.04 0-.01.012-.029.027-.04.014-.01.026-.029.026-.042 0-.013.006-.023.014-.023.007 0 .013-.011.013-.024 0-.013.012-.032.027-.043.014-.01.026-.028.026-.04 0-.01.012-.029.027-.039.014-.01.026-.03.026-.043 0-.013.006-.023.013-.023.008 0 .014-.01.014-.024 0-.013.012-.032.026-.042.015-.01.027-.029.027-.04 0-.012.012-.03.026-.04.015-.01.027-.03.027-.042 0-.014.006-.024.013-.024.007 0 .013-.01.013-.024 0-.013.012-.032.027-.042.014-.01.026-.029.026-.04s.012-.03.027-.04c.014-.01.026-.028.026-.04 0-.01.012-.029.027-.04.014-.01.026-.029.026-.042 0-.013.006-.023.014-.023.007 0 .013-.011.013-.024 0-.013.012-.032.026-.043.015-.01.027-.028.027-.04 0-.01.012-.029.026-.04.015-.01.027-.029.027-.042 0-.013.006-.023.013-.023.008 0 .014-.01.014-.024 0-.013.011-.032.026-.042.015-.011.027-.029.027-.04 0-.012.012-.03.026-.04.015-.01.027-.028.027-.04 0-.011.012-.029.026-.04.015-.01.027-.03.027-.042 0-.013.006-.024.013-.024.007 0 .013-.01.013-.023s.012-.032.027-.043c.014-.01.026-.028.026-.04 0-.01.012-.029.027-.04.014-.01.026-.029.026-.042 0-.013.006-.023.014-.023.007 0 .013-.011.013-.024 0-.013.012-.032.026-.043.015-.01.027-.028.027-.04 0-.01.012-.029.026-.04.015-.01.027-.029.027-.042 0-.013.006-.023.013-.023.008 0 .014-.012.014-.027 0-.014.005-.026.013-.026.007 0 .013-.012.013-.027 0-.014.006-.026.013-.026.008 0 .014-.018.014-.04 0-.022-.006-.04-.014-.04-.007 0-.013-.018-.013-.04 0-.021-.006-.04-.013-.04-.008 0-.014-.011-.014-.026 0-.016-.008-.026-.023-.026-.013 0-.032-.012-.043-.027a.073.073 0 0 0-.056-.026c-.02 0-.037-.006-.037-.013 0-.008-.012-.014-.026-.014-.015 0-.027-.006-.027-.013 0-.007-.012-.013-.026-.013-.015 0-.027-.006-.027-.013 0-.008-.012-.013-.026-.013-.015 0-.027-.006-.027-.014 0-.007-.018-.013-.04-.013-.022 0-.04-.006-.04-.013 0-.008-.011-.014-.026-.014-.014 0-.026-.005-.026-.013 0-.007-.012-.013-.027-.013-.014 0-.026-.006-.026-.013 0-.008-.012-.014-.027-.014s-.027-.005-.027-.013c0-.007-.017-.013-.04-.013-.021 0-.04-.006-.04-.013 0-.008-.011-.013-.026-.013-.014 0-.026-.006-.026-.014 0-.007-.012-.013-.027-.013-.014 0-.026-.006-.026-.013 0-.007-.012-.013-.027-.013-.014 0-.026-.006-.026-.014 0-.007-.018-.013-.04-.013-.022 0-.04-.006-.04-.013 0-.007-.012-.013-.026-.013-.015 0-.027-.006-.027-.014 0-.007-.012-.013-.026-.013-.015 0-.027-.006-.027-.013 0-.007-.012-.013-.026-.013-.015 0-.027-.006-.027-.014 0-.007-.018-.013-.04-.013-.022 0-.04-.006-.04-.013 0-.007-.011-.013-.026-.013s-.027-.006-.027-.014c0-.007-.012-.013-.026-.013-.015 0-.027-.006-.027-.013 0-.007-.012-.013-.026-.013-.015 0-.027-.006-.027-.014 0-.007-.018-.013-.04-.013-.021 0-.04-.006-.04-.013 0-.007-.011-.013-.026-.013-.014 0-.026-.006-.026-.014 0-.007-.012-.013-.027-.013-.014 0-.026-.006-.026-.013 0-.007-.012-.013-.027-.013-.014 0-.026-.006-.026-.013 0-.008-.018-.014-.04-.014-.022 0-.04-.006-.04-.013 0-.007-.012-.013-.027-.013-.014 0-.026-.006-.026-.013 0-.008-.012-.014-.027-.014-.014 0-.026-.006-.026-.013 0-.007-.012-.013-.027-.013-.014 0-.026-.006-.026-.013 0-.008-.018-.014-.04-.014-.022 0-.04-.006-.04-.013 0-.007-.012-.013-.026-.013-.015 0-.027-.006-.027-.013 0-.008-.012-.014-.026-.014-.015 0-.027-.005-.027-.013 0-.007-.012-.013-.026-.013-.015 0-.027-.006-.027-.013 0-.008-.018-.014-.04-.014-.022 0-.04-.005-.04-.013 0-.007-.011-.013-.026-.013s-.026-.006-.026-.013c0-.008-.013-.014-.027-.014-.015 0-.027-.006-.027-.013 0-.007-.011-.013-.026-.013s-.027-.006-.027-.013c0-.008-.018-.014-.04-.014-.021 0-.04-.005-.04-.013 0-.007-.011-.013-.026-.013-.014 0-.026-.006-.026-.013 0-.008-.012-.013-.027-.013-.014 0-.026-.006-.026-.014 0-.007-.012-.013-.027-.013-.014 0-.026-.006-.026-.013 0-.007-.018-.013-.04-.013-.022 0-.04-.006-.04-.014 0-.007-.012-.013-.026-.013-.015 0-.027-.006-.027-.013 0-.007-.012-.013-.026-.013-.015 0-.027-.006-.027-.014 0-.007-.012-.013-.027-.013-.014 0-.026-.006-.026-.013 0-.007-.018-.013-.04-.013-.022 0-.04-.006-.04-.014 0-.007-.012-.013-.026-.013-.015 0-.027-.006-.027-.013 0-.007-.012-.013-.026-.013-.015 0-.027-.006-.027-.014 0-.007-.012-.013-.026-.013-.015 0-.027-.006-.027-.013 0-.007-.018-.013-.04-.013-.022 0-.04-.006-.04-.014 0-.007-.011-.013-.026-.013-.014 0-.026-.006-.026-.013 0-.007-.012-.013-.027-.013s-.027-.006-.027-.014c0-.007-.011-.013-.026-.013s-.027-.006-.027-.013c0-.007-.009-.013-.02-.013-.011 0-.04-.02-.066-.046-.042-.041-.046-.053-.046-.12 0-.04.006-.073.013-.073.007 0 .013-.009.013-.02 0-.026.086-.112.113-.112.01 0 .02-.006.02-.013 0-.008.024-.013.053-.013.03 0 .053-.006.053-.014 0-.007.03-.013.066-.013.037 0 .067-.006.067-.013 0-.008.035-.013.08-.013.044 0 .079-.006.079-.014 0-.007.03-.013.066-.013.037 0 .067-.006.067-.013 0-.007.03-.013.066-.013.036 0 .066-.006.066-.014 0-.007.035-.013.08-.013.044 0 .08-.006.08-.013 0-.007.03-.013.066-.013.036 0 .066-.006.066-.014 0-.007.035-.013.08-.013.044 0 .079-.006.079-.013 0-.007.03-.013.066-.013.037 0 .067-.006.067-.014 0-.007.035-.013.08-.013.043 0 .079-.006.079-.013 0-.007.03-.013.066-.013.037 0 .066-.006.066-.014 0-.007.03-.013.067-.013.036 0 .066-.006.066-.013 0-.007.035-.013.08-.013.044 0 .08-.006.08-.013 0-.008.03-.014.066-.014.036 0 .066-.006.066-.013 0-.007.035-.013.08-.013.044 0 .079-.006.079-.013 0-.008.03-.014.066-.014.037 0 .067-.006.067-.013 0-.007.035-.013.08-.013.043 0 .079-.006.079-.013 0-.008.03-.014.066-.014.037 0 .066-.006.066-.013 0-.007.03-.013.067-.013.036 0 .066-.006.066-.013 0-.008.035-.014.08-.014.044 0 .08-.005.08-.013 0-.007.029-.013.066-.013.036 0 .066-.006.066-.013 0-.008.035-.014.08-.014.044 0 .079-.006.079-.013 0-.007.03-.013.066-.013.037 0 .067-.006.067-.013 0-.008.035-.014.08-.014.043 0 .079-.005.079-.013 0-.007.03-.013.066-.013.037 0 .066-.006.066-.013 0-.008.03-.014.067-.014.036 0 .066-.006.066-.013 0-.007.024-.013.053-.013.03 0 .053-.006.053-.013 0-.007.01-.013.02-.013.034 0 .113-.088.113-.126 0-.018.006-.033.013-.033.007 0 .013-.012.013-.027 0-.014-.006-.026-.013-.026-.007 0-.013-.017-.013-.037a.072.072 0 0 0-.027-.056c-.014-.01-.026-.028-.026-.04 0-.011-.012-.029-.027-.04-.014-.01-.026-.027-.026-.037 0-.01-.018-.035-.04-.055-.022-.02-.04-.046-.04-.055 0-.01-.012-.027-.026-.038-.015-.01-.027-.028-.027-.04 0-.01-.012-.029-.027-.04-.014-.01-.026-.028-.026-.039s-.012-.03-.027-.04c-.014-.01-.026-.028-.026-.04 0-.01-.012-.029-.027-.04-.014-.01-.026-.028-.026-.039s-.012-.03-.027-.04c-.014-.01-.026-.027-.026-.037 0-.01-.018-.035-.04-.055-.022-.02-.04-.046-.04-.056 0-.01-.012-.026-.026-.037-.015-.01-.027-.028-.027-.04 0-.011-.012-.029-.026-.04-.015-.01-.027-.028-.027-.04 0-.01-.012-.028-.026-.039-.015-.01-.027-.028-.027-.04 0-.011-.012-.029-.026-.04-.015-.01-.027-.027-.027-.037 0-.01-.018-.035-.04-.055-.022-.02-.04-.045-.04-.055 0-.01-.011-.027-.026-.038-.015-.01-.027-.028-.027-.04 0-.01-.012-.029-.026-.04-.015-.01-.027-.028-.027-.039s-.012-.03-.026-.04c-.015-.01-.027-.028-.027-.04 0-.01-.012-.029-.026-.04-.015-.01-.027-.027-.027-.039 0-.011-.012-.03-.026-.04-.015-.01-.027-.027-.027-.037 0-.01-.018-.035-.04-.055-.022-.02-.04-.047-.04-.058 0-.012-.005-.022-.013-.022-.007 0-.013-.012-.013-.026 0-.015-.006-.027-.013-.027-.008 0-.013-.035-.013-.08 0-.043.005-.079.013-.079.007 0 .013-.009.013-.02 0-.027.032-.059.059-.059.011 0 .02-.006.02-.013 0-.008.045-.014.107-.014s.106.006.106.014.049.013.12.013c.07 0 .119.005.119.013s.044.014.106.014.106.005.106.013.048.013.12.013c.07 0 .119.005.119.013s.044.013.106.013.106.006.106.014c0 .007.044.013.106.013s.106.005.106.013.049.013.12.013c.07 0 .119.006.119.014 0 .007.044.013.106.013s.106.005.106.013.049.013.12.013c.07 0 .119.006.119.014s.057.013.145.013c.089 0 .146-.005.146-.013s.01-.014.02-.014c.012 0 .042-.02.067-.046l.046-.045v-.603c0-.393-.005-.603-.013-.603-.009 0-.014-.212-.014-.61 0-.397.005-.608.014-.608.007 0 .013-.01.013-.021 0-.027.06-.086.086-.086.01 0 .02-.005.02-.013 0-.007.033-.013.073-.013.07 0 .077.003.133.06.033.032.06.065.06.073 0 .008.03.043.066.079a.304.304 0 0 1 .066.08c0 .008.03.043.066.079a.306.306 0 0 1 .067.08c0 .008.023.037.053.066.029.027.053.057.053.066 0 .008.03.044.066.08a.308.308 0 0 1 .066.079.3.3 0 0 0 .067.079.306.306 0 0 1 .066.08c0 .008.03.043.066.079a.304.304 0 0 1 .067.08c0 .008.023.038.053.066.029.028.053.057.053.066 0 .008.03.044.066.08a.308.308 0 0 1 .066.079c0 .008.03.044.067.08a.302.302 0 0 1 .066.079c0 .008.024.038.053.066.03.028.053.057.053.066 0 .008.03.044.066.08a.306.306 0 0 1 .067.079c0 .008.03.044.066.08a.313.313 0 0 1 .066.078c0 .03.118.133.152.133.019 0 .034.006.034.014 0 .027.093.013.127-.02.033-.033.043-.073.019-.073-.007 0-.013-.012-.013-.027 0-.014-.006-.026-.014-.026-.007 0-.013-.01-.013-.024 0-.013-.012-.032-.026-.042-.015-.01-.027-.03-.027-.043 0-.013-.006-.024-.013-.024-.008 0-.013-.011-.013-.026s-.006-.027-.014-.027c-.007 0-.013-.01-.013-.023s-.012-.032-.027-.043c-.014-.01-.026-.03-.026-.042 0-.013-.006-.024-.013-.024-.008 0-.014-.01-.014-.024 0-.012-.011-.032-.026-.042-.015-.01-.027-.03-.027-.043 0-.013-.006-.023-.013-.023-.007 0-.013-.012-.013-.027s-.006-.026-.013-.026c-.008 0-.014-.011-.014-.024 0-.013-.012-.032-.026-.043-.015-.01-.027-.03-.027-.042 0-.013-.006-.024-.013-.024-.007 0-.013-.01-.013-.023s-.012-.032-.027-.043c-.014-.01-.026-.03-.026-.043 0-.013-.006-.023-.014-.023-.007 0-.013-.012-.013-.027 0-.014-.006-.026-.013-.026-.007 0-.013-.01-.013-.024 0-.013-.012-.032-.027-.042-.014-.01-.026-.03-.026-.043 0-.013-.006-.024-.014-.024-.007 0-.013-.012-.013-.026 0-.015-.006-.027-.013-.027-.008 0-.013-.01-.013-.023s-.012-.032-.027-.043c-.014-.01-.026-.03-.026-.042 0-.013-.006-.024-.014-.024-.007 0-.013-.01-.013-.023 0-.014-.012-.033-.026-.043-.015-.01-.027-.03-.027-.043 0-.013-.006-.023-.013-.023-.008 0-.014-.012-.014-.027 0-.014-.006-.026-.013-.026-.007 0-.013-.011-.013-.024 0-.013-.012-.032-.027-.043-.014-.01-.026-.03-.026-.042 0-.013-.006-.024-.013-.024-.008 0-.014-.01-.014-.023s-.012-.033-.026-.043c-.015-.01-.027-.03-.027-.043 0-.013-.006-.023-.013-.023-.007 0-.013-.012-.013-.027 0-.014-.006-.026-.014-.026-.007 0-.013-.01-.013-.024 0-.013-.012-.032-.026-.042-.015-.01-.027-.03-.027-.043 0-.013-.006-.024-.013-.024-.007 0-.013-.01-.013-.023s-.012-.032-.027-.043c-.014-.01-.026-.03-.026-.042 0-.013-.006-.024-.014-.024-.007 0-.013-.012-.013-.027 0-.014-.006-.026-.013-.026-.008 0-.014-.01-.014-.024 0-.012-.011-.032-.026-.042-.015-.01-.027-.03-.027-.043 0-.013-.006-.023-.013-.023-.007 0-.013-.012-.013-.027 0-.014-.006-.026-.013-.026-.008 0-.014-.01-.014-.024 0-.013-.011-.032-.026-.042-.015-.011-.027-.03-.027-.043 0-.013-.006-.024-.013-.024-.007 0-.013-.01-.013-.023s-.012-.032-.027-.043c-.014-.01-.026-.03-.026-.043 0-.013-.006-.023-.014-.023-.007 0-.013-.012-.013-.027 0-.014-.006-.026-.013-.026-.007 0-.013-.01-.013-.024 0-.013-.012-.032-.027-.042-.014-.01-.026-.03-.026-.043 0-.013-.006-.024-.014-.024-.007 0-.013-.01-.013-.023s-.012-.032-.026-.043c-.015-.01-.027-.03-.027-.042 0-.013-.006-.024-.013-.024-.007 0-.013-.012-.013-.026 0-.015-.006-.027-.014-.027-.007 0-.013-.01-.013-.024 0-.012-.012-.032-.027-.042-.014-.01-.026-.03-.026-.043 0-.013-.006-.023-.013-.023-.008 0-.014-.01-.014-.024 0-.013-.011-.032-.026-.043-.015-.01-.027-.03-.027-.042 0-.013-.005-.024-.013-.024-.007 0-.013-.012-.013-.026 0-.015-.006-.027-.013-.027-.008 0-.014-.01-.014-.023s-.012-.032-.026-.043c-.015-.01-.027-.03-.027-.043 0-.012-.006-.023-.013-.023-.007 0-.013-.012-.013-.027 0-.014-.006-.026-.013-.026-.008 0-.014-.01-.014-.024 0-.013-.012-.032-.026-.042-.015-.01-.027-.03-.027-.043 0-.013-.006-.024-.013-.024-.007 0-.013-.01-.013-.023s-.012-.032-.027-.043c-.014-.01-.026-.03-.026-.042 0-.013-.006-.024-.014-.024-.007 0-.013-.012-.013-.026 0-.015-.006-.027-.013-.027-.007 0-.013-.01-.013-.023s-.012-.033-.027-.043c-.014-.01-.026-.03-.026-.043 0-.013-.006-.023-.014-.023-.007 0-.013-.01-.013-.024 0-.013-.012-.032-.026-.043-.015-.01-.027-.03-.027-.042 0-.013-.006-.024-.013-.024-.008 0-.014-.012-.014-.026 0-.015-.006-.027-.013-.027-.007 0-.013-.01-.013-.023s-.012-.032-.027-.043c-.014-.01-.026-.03-.026-.043 0-.012-.006-.023-.013-.023-.008 0-.014-.012-.014-.027 0-.014-.006-.026-.013-.026-.007 0-.013-.01-.013-.024 0-.013-.012-.032-.027-.042-.014-.01-.026-.03-.026-.043 0-.013-.006-.023-.014-.023-.007 0-.013-.011-.013-.024 0-.013-.012-.032-.026-.043-.015-.01-.027-.03-.027-.042 0-.013-.006-.024-.013-.024-.007 0-.013-.012-.013-.026 0-.015-.006-.027-.014-.027-.007 0-.013-.01-.013-.023s-.012-.033-.026-.043c-.015-.01-.027-.03-.027-.043 0-.013-.006-.023-.013-.023-.008 0-.013-.01-.013-.024 0-.013-.012-.032-.027-.043-.015-.01-.027-.03-.027-.042 0-.013-.005-.024-.013-.024-.007 0-.013-.012-.013-.026 0-.015-.006-.027-.013-.027-.008 0-.014-.01-.014-.023s-.011-.032-.026-.043c-.015-.01-.027-.03-.027-.042 0-.013-.006-.024-.013-.024-.007 0-.013-.01-.013-.024 0-.013-.012-.032-.027-.042-.014-.01-.026-.03-.026-.043 0-.013-.006-.024-.013-.024-.008 0-.014-.011-.014-.026 0-.014-.006-.027-.013-.027-.007 0-.013-.01-.013-.023s-.012-.032-.027-.043c-.014-.01-.026-.03-.026-.042 0-.013-.006-.024-.014-.024-.007 0-.013-.012-.013-.026 0-.015-.006-.027-.013-.027-.007 0-.013-.01-.013-.023s-.012-.033-.027-.043c-.014-.01-.026-.03-.026-.043 0-.013-.006-.023-.014-.023-.007 0-.013-.01-.013-.024 0-.013-.012-.032-.026-.042-.015-.011-.027-.03-.027-.043 0-.013-.006-.024-.013-.024-.008 0-.014-.012-.014-.026 0-.015-.005-.027-.013-.027-.007 0-.013-.01-.013-.023s-.012-.032-.026-.043c-.015-.01-.027-.027-.027-.037 0-.01-.015-.032-.033-.05-.028-.027-.044-.032-.116-.031-.077 0-.086.004-.126.046z" fill="#000"/></svg>