<svg width="148" height="51" fill="none" xmlns="http://www.w3.org/2000/svg"><path d="M73.876 12.104V16h-1.313V6.047h3.67c1.09 0 1.942.278 2.557.834.62.556.93 1.292.93 2.208 0 .966-.303 1.711-.909 2.235-.602.52-1.465.78-2.59.78h-2.346zm0-1.074h2.358c.702 0 1.24-.164 1.613-.492.374-.333.56-.811.56-1.435 0-.593-.186-1.067-.56-1.422-.373-.356-.886-.54-1.538-.554h-2.433v3.903zm6.89 1.203c0-.724.141-1.376.424-1.955a3.226 3.226 0 0 1 1.19-1.34c.51-.314 1.09-.471 1.743-.471 1.007 0 1.82.348 2.44 1.046.624.697.936 1.624.936 2.782v.089c0 .72-.138 1.367-.416 1.941a3.114 3.114 0 0 1-1.183 1.333c-.51.32-1.098.479-1.764.479-1.002 0-1.816-.349-2.44-1.046-.62-.697-.93-1.62-.93-2.769v-.089zm1.272.15c0 .821.189 1.48.567 1.976.383.497.893.745 1.531.745.643 0 1.153-.25 1.532-.752.378-.505.567-1.212.567-2.119 0-.81-.194-1.467-.581-1.968a1.825 1.825 0 0 0-1.531-.76c-.625 0-1.128.25-1.511.746-.383.497-.574 1.208-.574 2.133zm11.354 1.655c0-.342-.13-.606-.39-.793-.255-.191-.704-.355-1.346-.492-.638-.137-1.146-.3-1.525-.492-.373-.192-.651-.42-.834-.684a1.65 1.65 0 0 1-.266-.943c0-.606.255-1.119.765-1.538.515-.42 1.172-.63 1.97-.63.838 0 1.517.217 2.036.65.524.433.786.987.786 1.661h-1.271c0-.346-.148-.644-.444-.895-.292-.25-.661-.376-1.108-.376-.46 0-.82.1-1.08.3a.948.948 0 0 0-.39.787c0 .305.121.535.363.69.241.155.677.303 1.305.444.634.142 1.147.31 1.538.506.392.196.682.433.869.711.191.274.287.609.287 1.005 0 .661-.265 1.192-.793 1.593-.529.396-1.215.595-2.058.595-.592 0-1.116-.105-1.572-.315a2.593 2.593 0 0 1-1.073-.875 2.146 2.146 0 0 1-.383-1.223h1.264c.023.424.192.76.506 1.011.32.246.739.37 1.258.37.479 0 .862-.096 1.149-.288.291-.196.437-.455.437-.779zm4.628-7.226v1.792h1.38v.977h-1.38v4.587c0 .296.062.52.185.67.123.146.332.219.629.219.145 0 .346-.028.601-.082V16a3.669 3.669 0 0 1-.97.137c-.566 0-.992-.171-1.279-.513-.287-.342-.43-.827-.43-1.456V9.581h-1.347v-.977h1.346V6.813h1.265zm5.934 9.325c-1.003 0-1.819-.328-2.448-.985-.629-.66-.943-1.542-.943-2.645v-.233c0-.733.139-1.387.417-1.961a3.282 3.282 0 0 1 1.176-1.354 2.956 2.956 0 0 1 1.64-.492c.962 0 1.709.317 2.243.95.533.633.799 1.54.799 2.72v.527h-5.01c.018.73.23 1.32.635 1.77.411.447.93.67 1.559.67.447 0 .825-.09 1.135-.273.31-.182.581-.424.813-.725l.773.602c-.62.953-1.55 1.429-2.789 1.429zm-.158-6.631c-.51 0-.938.187-1.285.56-.346.37-.56.89-.642 1.559h3.705v-.096c-.037-.642-.21-1.139-.52-1.49-.31-.355-.729-.533-1.258-.533zM108 12.24c0-1.135.269-2.046.807-2.734.538-.693 1.242-1.04 2.112-1.04.866 0 1.552.297 2.058.89V5.5h1.265V16h-1.162l-.062-.793c-.506.62-1.21.93-2.112.93-.857 0-1.557-.351-2.099-1.053-.538-.702-.807-1.618-.807-2.748v-.096zm1.265.144c0 .838.173 1.495.52 1.968.346.474.825.711 1.435.711.802 0 1.388-.36 1.757-1.08v-3.397c-.378-.697-.959-1.046-1.743-1.046-.62 0-1.103.24-1.449.718-.347.478-.52 1.187-.52 2.126zm10.083-.15c0-.725.141-1.377.424-1.956a3.222 3.222 0 0 1 1.189-1.34c.511-.314 1.092-.471 1.744-.471 1.007 0 1.82.348 2.44 1.046.624.697.937 1.624.937 2.782v.089c0 .72-.139 1.367-.417 1.941a3.119 3.119 0 0 1-1.183 1.333c-.51.32-1.098.479-1.764.479-1.002 0-1.816-.349-2.44-1.046-.62-.697-.93-1.62-.93-2.769v-.089zm1.272.15c0 .82.189 1.479.567 1.975.383.497.893.745 1.531.745.643 0 1.153-.25 1.532-.752.378-.505.567-1.212.567-2.119 0-.81-.194-1.467-.581-1.968a1.825 1.825 0 0 0-1.531-.76c-.625 0-1.128.25-1.511.746-.383.497-.574 1.208-.574 2.133zm8.244-3.78l.041.93c.565-.712 1.303-1.067 2.215-1.067 1.563 0 2.351.882 2.365 2.645V16h-1.265v-4.895c-.004-.533-.127-.927-.369-1.182-.237-.255-.608-.383-1.114-.383-.41 0-.77.11-1.08.328a2.23 2.23 0 0 0-.725.861V16h-1.265V8.604h1.197z" fill="#8C9094"/><path d="M12.36 25.5c0-2.526.697-4.894 1.907-6.92V9.983H5.668C2.257 14.414.408 19.815.408 25.5c0 5.686 1.85 11.087 5.261 15.518h8.598v-8.597a13.465 13.465 0 0 1-1.906-6.92z" fill="#FFBA00"/><path d="M25.908 39.046l-5.977 5.977L25.908 51c5.685 0 11.086-1.85 15.518-5.262V37.15h-8.588a13.546 13.546 0 0 1-6.93 1.896z" fill="#00AC47"/><path d="M14.267 32.42l-8.598 8.598a25.905 25.905 0 0 0 2.208 2.513c4.816 4.817 11.22 7.47 18.03 7.47V39.046c-4.942 0-9.275-2.662-11.64-6.626z" fill="#00AC47"/><path d="M51.408 25.5c0-1.551-.14-3.105-.418-4.62l-.224-1.224H25.908v11.953h12.098a13.486 13.486 0 0 1-5.169 5.542l8.588 8.588a25.92 25.92 0 0 0 2.514-2.207c4.816-4.817 7.469-11.22 7.469-18.032z" fill="#3174F1"/><path d="M35.487 15.92l1.056 1.057 8.453-8.452-1.057-1.056C39.123 2.653 32.72 0 25.908 0L19.93 5.977l5.977 5.976c3.618 0 7.02 1.41 9.579 3.968z" fill="#FC2C25"/><path d="M25.908 11.953V0C19.096 0 12.693 2.653 7.876 7.469A25.885 25.885 0 0 0 5.67 9.982l8.597 8.598c2.367-3.965 6.699-6.627 11.642-6.627z" fill="#FC2C25"/><path d="M90.17 31.865h-8.905v2.65h6.315c-.312 3.718-3.395 5.303-6.305 5.303-3.722 0-6.97-2.938-6.97-7.057 0-4.013 3.096-7.103 6.979-7.103 2.995 0 4.76 1.916 4.76 1.916l1.85-1.922S85.52 23 81.19 23c-5.515 0-9.781 4.67-9.781 9.714 0 4.942 4.013 9.761 9.922 9.761 5.196 0 9-3.571 9-8.853 0-1.114-.16-1.758-.16-1.758zm7.28-1.959c-3.665 0-6.29 2.846-6.29 6.165 0 3.368 2.546 6.266 6.333 6.266 3.427 0 6.235-2.602 6.235-6.194 0-4.117-3.266-6.237-6.278-6.237zm.036 2.442c1.802 0 3.51 1.447 3.51 3.779 0 2.282-1.7 3.77-3.518 3.77-1.997 0-3.573-1.588-3.573-3.788 0-2.154 1.556-3.761 3.58-3.761zm13.569-2.442c-3.624 0-6.222 2.846-6.222 6.165 0 3.368 2.52 6.266 6.264 6.266 3.39 0 6.167-2.602 6.167-6.194 0-4.117-3.23-6.237-6.209-6.237zm.036 2.442c1.782 0 3.471 1.447 3.471 3.779 0 2.282-1.682 3.77-3.48 3.77-1.975 0-3.533-1.588-3.533-3.788 0-2.154 1.539-3.761 3.542-3.761zm13.291-2.442c-3.366 0-6.013 2.938-6.013 6.235 0 3.756 3.068 6.247 5.955 6.247 1.786 0 2.735-.706 3.436-1.517v1.231c0 2.153-1.312 3.442-3.293 3.442-1.913 0-2.873-1.417-3.206-2.221l-2.408 1.002c.854 1.8 2.574 3.675 5.634 3.675 3.347 0 5.899-2.1 5.899-6.506V30.281h-2.626v1.057c-.808-.867-1.912-1.432-3.378-1.432zm.244 2.446c1.651 0 3.346 1.404 3.346 3.802 0 2.438-1.692 3.781-3.382 3.781-1.795 0-3.465-1.452-3.465-3.758 0-2.395 1.734-3.825 3.501-3.825zm17.392-2.446c-3.17 0-5.831 2.505-5.831 6.2 0 3.912 2.966 6.231 6.135 6.231 2.645 0 4.268-1.437 5.237-2.725l-2.161-1.428c-.561.864-1.498 1.71-3.063 1.71-1.757 0-2.565-.956-3.066-1.882l8.382-3.455-.435-1.012c-.81-1.983-2.699-3.639-5.198-3.639zm.109 2.388c1.142 0 1.964.603 2.313 1.326l-5.598 2.324c-.241-1.799 1.475-3.65 3.285-3.65zm-9.946 9.766h2.763V23.69h-2.763v18.37z" fill="#4A8AF4"/></svg>