<svg width="175" height="37" fill="none" xmlns="http://www.w3.org/2000/svg"><path d="M119.623 19.063V25h-1.66V10.723h3.916c1.751 0 3.044.335 3.877 1.005.84.671 1.26 1.68 1.26 3.028 0 1.888-.957 3.164-2.871 3.828L128.021 25h-1.962l-3.457-5.938h-2.979zm0-1.426h2.275c1.172 0 2.032-.231 2.579-.694.546-.468.82-1.168.82-2.1 0-.943-.28-1.624-.84-2.04-.553-.417-1.445-.625-2.676-.625h-2.158v5.459zM136.664 25l-.322-1.523h-.078c-.534.67-1.068 1.126-1.602 1.367-.527.234-1.188.351-1.982.351-1.062 0-1.895-.273-2.5-.82-.599-.547-.899-1.325-.899-2.334 0-2.161 1.729-3.294 5.186-3.398l1.816-.059v-.664c0-.84-.182-1.458-.547-1.856-.358-.403-.934-.605-1.728-.605-.892 0-1.901.273-3.028.82l-.498-1.24a7.654 7.654 0 0 1 1.729-.674 7.563 7.563 0 0 1 1.894-.244c1.277 0 2.221.283 2.833.85.618.566.927 1.474.927 2.724V25h-1.201zm-3.662-1.143c1.009 0 1.8-.276 2.373-.83.579-.553.869-1.328.869-2.324v-.967l-1.621.069c-1.289.045-2.22.247-2.793.605-.566.352-.85.902-.85 1.65 0 .587.176 1.032.528 1.338.358.306.856.46 1.494.46zm11.67 0c.286 0 .563-.02.83-.058a5.96 5.96 0 0 0 .635-.137v1.24c-.176.085-.436.153-.782.205a5.418 5.418 0 0 1-.917.088c-2.071 0-3.106-1.09-3.106-3.271v-6.367h-1.533v-.782l1.533-.673.684-2.286h.937v2.48h3.106v1.26h-3.106v6.3c0 .644.153 1.139.459 1.484.306.345.726.517 1.26.517zM149.906 25h-1.621V14.297h1.621V25zm-1.758-13.604c0-.37.092-.64.274-.81a.945.945 0 0 1 .683-.264c.261 0 .485.088.674.264.189.176.283.446.283.81 0 .365-.094.638-.283.82a.955.955 0 0 1-.674.264.944.944 0 0 1-.683-.263c-.182-.183-.274-.456-.274-.82zM160.668 25v-6.924c0-.872-.199-1.523-.596-1.953-.397-.43-1.019-.645-1.865-.645-1.12 0-1.94.303-2.461.909-.521.605-.781 1.604-.781 2.998V25h-1.621V14.297h1.318l.264 1.465h.078a3.277 3.277 0 0 1 1.396-1.221c.599-.293 1.267-.44 2.002-.44 1.289 0 2.259.313 2.91.938.652.619.977 1.611.977 2.979V25h-1.621zm13.721-10.703v1.025l-1.983.235c.183.227.345.527.489.898.143.365.214.778.214 1.24 0 1.049-.358 1.885-1.074 2.51-.716.625-1.699.938-2.949.938-.319 0-.619-.027-.898-.079-.691.365-1.036.824-1.036 1.377 0 .293.121.512.362.655.241.136.654.205 1.24.205h1.894c1.159 0 2.048.244 2.666.732.625.488.938 1.198.938 2.13 0 1.184-.475 2.086-1.426 2.704-.95.625-2.337.938-4.16.938-1.4 0-2.48-.26-3.242-.782-.755-.52-1.133-1.256-1.133-2.207 0-.65.208-1.214.625-1.689.417-.475 1.003-.798 1.758-.967a1.73 1.73 0 0 1-.694-.576 1.546 1.546 0 0 1-.273-.908c0-.39.104-.733.313-1.026.208-.293.537-.576.986-.85-.554-.227-1.006-.614-1.358-1.161-.345-.547-.517-1.172-.517-1.875 0-1.172.351-2.074 1.055-2.705.703-.638 1.699-.957 2.988-.957.56 0 1.064.065 1.514.195h3.701zm-8.535 12.5c0 .58.244 1.019.732 1.318.488.3 1.188.45 2.1.45 1.36 0 2.366-.206 3.017-.616.658-.403.986-.954.986-1.65 0-.58-.179-.983-.537-1.211-.358-.222-1.032-.332-2.021-.332h-1.943c-.736 0-1.309.176-1.719.527-.41.352-.615.856-.615 1.514zm.878-9.072c0 .748.212 1.315.635 1.699.423.384 1.013.576 1.768.576 1.582 0 2.373-.768 2.373-2.305 0-1.608-.801-2.412-2.403-2.412-.761 0-1.347.205-1.757.615-.41.41-.616 1.02-.616 1.827z" fill="#000"/><path d="M24.854 14.743H13.058v3.512h8.366c-.414 4.924-4.497 7.024-8.352 7.024-4.932 0-9.235-3.893-9.235-9.349 0-5.315 4.102-9.408 9.246-9.408 3.968 0 6.307 2.538 6.307 2.538l2.45-2.547S18.695 3 12.957 3C5.652 3 0 9.186 0 15.867 0 22.416 5.316 28.8 13.144 28.8c6.884 0 11.923-4.731 11.923-11.727 0-1.476-.214-2.33-.214-2.33v.001z" fill="#3174F1"/><path d="M34.498 12.149c-4.854 0-8.333 3.77-8.333 8.166 0 4.461 3.374 8.3 8.39 8.3 4.54 0 8.26-3.446 8.26-8.204 0-5.454-4.327-8.262-8.317-8.262zm.048 3.234c2.387 0 4.65 1.917 4.65 5.006 0 3.023-2.253 4.995-4.66 4.995-2.646 0-4.733-2.105-4.733-5.02 0-2.851 2.06-4.981 4.743-4.981z" fill="#FC2C25"/><path d="M52.52 12.149c-4.8 0-8.24 3.77-8.24 8.166 0 4.461 3.336 8.3 8.297 8.3 4.49 0 8.17-3.446 8.17-8.204 0-5.454-4.28-8.262-8.227-8.262zm.048 3.234c2.361 0 4.598 1.917 4.598 5.006 0 3.023-2.227 4.995-4.609 4.995-2.616 0-4.68-2.105-4.68-5.02 0-2.851 2.038-4.981 4.691-4.981z" fill="#FFBA00"/><path d="M70.176 12.149c-4.46 0-7.966 3.891-7.966 8.26 0 4.975 4.065 8.274 7.889 8.274 2.365 0 3.622-.935 4.55-2.009v1.63c0 2.852-1.737 4.56-4.361 4.56-2.534 0-3.806-1.877-4.248-2.943l-3.188 1.329c1.13 2.383 3.408 4.868 7.462 4.868 4.435 0 7.815-2.783 7.815-8.619V12.646h-3.48v1.4c-1.069-1.148-2.532-1.897-4.473-1.897zm.323 3.24c2.186 0 4.432 1.86 4.432 5.037 0 3.229-2.24 5.008-4.48 5.008-2.378 0-4.59-1.923-4.59-4.978 0-3.173 2.297-5.067 4.638-5.067z" fill="#3174F1"/><path d="M93.537 12.149c-4.198 0-7.724 3.318-7.724 8.214 0 5.18 3.93 8.253 8.128 8.253 3.503 0 5.653-1.904 6.937-3.61l-2.863-1.892c-.743 1.146-1.984 2.265-4.057 2.265-2.328 0-3.398-1.267-4.061-2.493L101 18.31l-.576-1.341c-1.073-2.627-3.575-4.82-6.886-4.82zm.145 3.163c1.513 0 2.602.799 3.064 1.757l-7.415 3.078c-.32-2.383 1.954-4.835 4.35-4.835z" fill="#FC2C25"/><path d="M80.507 28.25h3.66V3.915h-3.66V28.25z" fill="#00AC47"/></svg>