<svg width="60" height="61" fill="none" xmlns="http://www.w3.org/2000/svg"><ellipse cx="30" cy="30.5" rx="30" ry="30.5" fill="#4254F8"/><path d="M46.208 28.212h-.76v-4.575a3.39 3.39 0 0 0-3.387-3.386h-.703l.007-1.7a2.286 2.286 0 0 0-2.284-2.284H18.776A2.777 2.777 0 0 0 16 19.004v22.445a2.285 2.285 0 0 0 2.284 2.284h23.783a3.39 3.39 0 0 0 3.387-3.387v-4.58h.76c.985 0 1.786-.801 1.786-1.786v-3.983a1.797 1.797 0 0 0-1.792-1.785zm-27.432-10.37h20.305a.71.71 0 0 1 .709.703l-.007 1.706H18.776c-.663 0-1.2-.538-1.2-1.201s.537-1.208 1.2-1.208zM43.872 40.34c0 .997-.814 1.81-1.811 1.81H18.277a.71.71 0 0 1-.709-.708V21.55c.368.177.775.276 1.208.276h23.285c.997 0 1.811.814 1.811 1.811v4.575h-5.375c-.984 0-1.785.8-1.785 1.785v3.983c0 .985.8 1.785 1.785 1.785h5.375v4.575zm2.546-6.36c0 .118-.091.21-.21.21h-7.704a.207.207 0 0 1-.21-.21v-3.983c0-.112.092-.21.21-.21h7.704a.21.21 0 0 1 .21.21v3.983z" fill="#fff"/><circle cx="41" cy="32" r="1" fill="#fff"/><path d="M24 40a1 1 0 1 0 0-2v2zm-7 0h7v-2h-7v2z" fill="#fff"/></svg>