<svg width="60" height="61" fill="none" xmlns="http://www.w3.org/2000/svg"><ellipse cx="30" cy="30.5" rx="30" ry="30.5" fill="#4254F8"/><path d="M17.614 34.782c.408 0 .739.337.739.754v6.694c.001 1.249.993 2.26 2.217 2.262h20.735c1.224-.001 2.216-1.013 2.217-2.262V22.582c-.001-1.248-.993-2.26-2.217-2.262h-6.561a.747.747 0 0 1-.74-.753c0-.417.332-.755.74-.755h6.561c2.04.003 3.693 1.69 3.695 3.77V42.23c-.002 2.081-1.655 3.768-3.695 3.77H20.57c-2.04-.002-3.693-1.689-3.695-3.77v-6.694c0-.417.33-.755.739-.755z" fill="#fff"/><path d="M16.83 16.969a3.308 3.308 0 0 1 4.678 0l13.114 13.113c.09.09.155.201.19.324l1.724 6.225a.735.735 0 0 1-.905.905l-6.226-1.725a.733.733 0 0 1-.324-.188L15.967 22.509a3.31 3.31 0 0 1 0-4.678l.863-.862zm16.19 13.59L22.289 19.828l-3.462 3.461L29.56 34.022l3.46-3.461zm.692 1.388l-2.765 2.766 3.825 1.06-1.06-3.826zM17.007 21.47l.78.78 3.461-3.462-.78-.78a1.838 1.838 0 0 0-2.598 0l-.863.863a1.84 1.84 0 0 0 0 2.599z" fill="#fff"/></svg>