<svg width="60" height="61" fill="none" xmlns="http://www.w3.org/2000/svg"><ellipse cx="30" cy="30.5" rx="30" ry="30.5" fill="#4254F8"/><path d="M24.576 10a.742.742 0 0 0 0 1.485c4.192 0 7.603 3.5 7.603 7.8a.742.742 0 0 0 1.485 0c0-5.12-4.077-9.285-9.088-9.285z" fill="#fff"/><path d="M24.574 13.521a.742.742 0 0 0 0 1.485c2.296 0 4.164 1.92 4.164 4.28a.742.742 0 0 0 1.485 0c0-3.179-2.534-5.765-5.649-5.765z" fill="#fff"/><path d="M24.587 16.766a.742.742 0 0 0 0 1.484c.537 0 .973.455.973 1.013a.742.742 0 1 0 1.485 0c0-1.377-1.103-2.497-2.458-2.497zm4.208 18.204a.746.746 0 0 0-.524-.217.747.747 0 0 0-.525.217.748.748 0 0 0-.218.525.746.746 0 0 0 .743.743.745.745 0 0 0 .742-.743.745.745 0 0 0-.218-.525z" fill="#fff"/><path d="M45.042 41.682l-5.687-5.686a2.228 2.228 0 0 0-2.831-.264l-3.63 2.482a.743.743 0 0 1-.943-.088l-1.2-1.2a.743.743 0 0 0-1.05 1.05l1.2 1.2a2.228 2.228 0 0 0 2.831.263l3.63-2.481a.743.743 0 0 1 .943.087l5.687 5.687c.29.29.29.76 0 1.05-3.647 3.646-9.58 3.646-13.226 0L19.219 32.235a9.291 9.291 0 0 1-2.74-6.613c0-2.498.973-4.847 2.74-6.614a.737.737 0 0 1 .525-.217c.198 0 .384.077.524.218l5.687 5.686c.252.252.29.65.088.944l-2.482 3.63a2.228 2.228 0 0 0 .264 2.83l1.804 1.805a.742.742 0 0 0 1.05-1.05l-1.804-1.804a.742.742 0 0 1-.088-.944l2.481-3.63a2.228 2.228 0 0 0-.263-2.83l-5.687-5.687a2.23 2.23 0 0 0-3.149 0c-4.225 4.225-4.225 11.1 0 15.326L29.716 44.83A10.803 10.803 0 0 0 37.379 48c2.775 0 5.55-1.057 7.663-3.17a2.23 2.23 0 0 0 0-3.149z" fill="#fff"/><path d="M24.999 28.251l-4.5-4.5a.742.742 0 0 0-1.05 1.05l4.5 4.5a.74.74 0 0 0 1.05 0c.29-.29.29-.76 0-1.05zM42.22 45.473l-4.734-4.734a.743.743 0 0 0-1.05 1.05l4.734 4.734a.74.74 0 0 0 1.05 0c.29-.29.29-.76 0-1.05z" fill="#fff"/></svg>