<svg width="71" height="28" fill="none" xmlns="http://www.w3.org/2000/svg"><path d="M.435 20.83c.18.054.49-.084.716-.1.075.016.207-.01.333-.03.08-.05.196-.096.364-.137.015.012.094.002.168-.008.077-.013.15-.03.22-.048l.14-.034c.097-.023.195-.04.293-.055.203-.033.406-.061.595-.094-.088.017-.18.033-.275.047-.203.03-.375.08-.406.137.005.006.017.01.033.012-.047.01-.094.019-.137.03-.02.005-.023.016-.033.024.03-.004.071-.008.087-.014.035-.013.061-.026.09-.04a.336.336 0 0 0 .04.003c.202-.006.37-.082.574-.117-.13.026-.24.054-.264.082-.039.046.125.006.22-.001.09-.007.224-.042.286-.031l-.073.011-.094.015-.13.02c.1.042.173.034.458-.05.16-.028.262-.027.37-.02-.213.054-.373.117-.596.136a.13.13 0 0 0-.042.013c-.004.008-.01.018.006.02.217.02.492.002.845-.07.055-.011.069-.02.043-.021-.116-.005-.315.056-.456.046l.43-.078c.197-.036.083-.06.177-.092l.072-.005c.045-.003.091-.008.139-.014.177.018.389.02.711-.031.126-.02.25-.025.33-.015a.418.418 0 0 0 .206-.033c.134-.047.28-.065.43-.085a4.71 4.71 0 0 0 .62-.117l.106-.013a2.58 2.58 0 0 0 .245-.055c.22-.03.439-.068.646-.132.014-.004.036-.007.054-.01a.62.62 0 0 0 .08-.007.663.663 0 0 0 .312-.015c.189-.045.377-.075.566-.106.161-.027.304-.057.4-.105a1.13 1.13 0 0 1 .3-.078l1.36-.221a2.95 2.95 0 0 1 .195-.027.116.116 0 0 0-.006.014l.103.009.226-.063a.03.03 0 0 0 .001-.009l.174-.05c-.084-.006-.237.018-.27-.008l-.002-.002.195-.025c.342-.002.777-.061 1.193-.109a1.358 1.358 0 0 1-.01.021l.213-.033c.064.011.243-.038.277-.012 0 .015-.003.031.056.032h-.004c.032.004.068 0 .11-.017a1.64 1.64 0 0 1 .103-.016.638.638 0 0 1 .125-.032l.076.004c.01.001.017.004.025.006a9.84 9.84 0 0 1-1.157.32c-.184.039-.387.072-.473.134h.002c.01.033-.201.086-.155.118.322-.048.64-.1.967-.164.378-.073.763-.133 1.144-.195.065-.01.127-.007.19-.01h-.003c.032.005.066 0 .104-.016h-.001a1.48 1.48 0 0 1 .317-.073c.284-.046.57-.085.852-.138.16-.03.293-.05.431-.059a9.27 9.27 0 0 0 1.155-.146l.23-.039c.307-.056.608-.13.918-.174.105-.038.23-.06.358-.08l.116-.02.055-.01.054-.008a.345.345 0 0 1 .126-.02h.001c.147-.025.295-.05.442-.073.079-.028.172-.044.267-.06l1.128-.187.115-.018.228-.037a1.56 1.56 0 0 1 .312-.075l1.184-.193c.359-.083.884-.169 1.28-.208l.2-.035c.076-.028.169-.044.264-.06l.564-.091.116-.02.22-.037h.003a.855.855 0 0 1 .257-.041.515.515 0 0 1 .076-.015l.026-.023a1.3 1.3 0 0 1 .078-.028.274.274 0 0 0 .06.017c.526-.08 1.065-.185 1.585-.245.048.006.123-.007.197-.018a.617.617 0 0 0 .132-.036l-.002.001c.146-.048.334-.05.477-.101l.046-.01.046-.005c.268-.074.562-.08.829-.16l-.006.003c.15-.044.296-.09.48-.114.048-.008.095-.017.141-.028.091-.022.187-.037.278-.058a1.323 1.323 0 0 0 .276-.09c.12-.03.212-.065.312-.099.204-.056.47-.079.639-.153.302-.074.595-.098.892-.148L32.16 16c.01 0 .025 0 .044-.003.067-.008.137-.02.206-.031a.085.085 0 0 0 .018-.02l.007-.003.011-.005.297-.054a.516.516 0 0 0-.197.008c.082-.027.173-.047.266-.065l.19-.032.005-.006c.044-.008.088-.017.13-.027.352-.067.703-.14 1.057-.203.367-.098.76-.118 1.128-.213l-.004.001c.331-.077.66-.112.991-.171.054-.008.107-.018.16-.03.075-.04.111-.013.17-.025.053-.01.106-.022.156-.034.324-.073.643-.125.958-.158.148.004.34-.046.51-.068a.71.71 0 0 0 .163-.04h-.003c.202-.058.428-.066.63-.123l.151-.037c.106-.018.213-.043.308-.053.439-.047.893-.135 1.337-.2h.004c.024-.008.036-.015.038-.02.107-.016.22-.04.312-.04l.007-.003.432-.087.01-.003h.003-.005a.464.464 0 0 0 .097 0c.126-.006.278-.039.415-.057.14-.019.3-.055.41-.046l.317-.05.004-.001h.007l.121-.02h.008v-.002l1.454-.234c.304-.045.607-.09.91-.133.358-.065.682-.078 1.042-.147.057-.006.115-.014.174-.024l.862-.139.164-.026c.13-.03.252-.043.377-.06l.44-.072c.14-.031.28-.062.418-.07.046-.006.093-.012.141-.02.073-.012.146-.024.199-.047l-.004.002c.557-.115 1.108-.183 1.663-.28l.172-.027c.15-.026.3-.067.45-.077.045-.005.092-.01.141-.018l.215-.035a.654.654 0 0 0 .126-.034l-.002.001c.382-.094.777-.114 1.159-.212.183-.057.402-.059.584-.118l.042-.01.042-.005c.196-.056.42-.062.613-.122l.043-.01.043-.006c.037-.007.055-.014.058-.02h.002l.505-.081c.06-.01.11-.023.154-.039l-.002.001c.145-.044.299-.056.448-.084a.63.63 0 0 0 .135-.036l-.003.002c.105-.037.255-.043.358-.082.179-.053.367-.066.55-.1a.716.716 0 0 0 .143-.038l-.003.001c.106-.037.257-.042.36-.082l.042-.01.043-.005c.115-.036.267-.044.376-.084.18-.058.403-.059.581-.12.154-.045.315-.057.472-.086.078-.013.16-.025.223-.05.224-.065.478-.069.7-.137h-.001c.255-.066.512-.088.768-.136a.688.688 0 0 0 .157-.039l-.003.001c.246-.063.493-.085.74-.13l.165-.03c.14-.049.303-.07.463-.096a.645.645 0 0 0 .14-.038l-.003.002c.106-.037.258-.042.358-.082h-.003c.074-.024.17-.037.249-.059.069-.024.16-.043.227-.067h-.002c.075-.024.16-.037.245-.051a.562.562 0 0 0 .107-.032l-.003.002c.104-.037.26-.042.357-.083.08-.025.182-.038.263-.063.09-.035.236-.045.324-.08.07-.024.17-.037.232-.062.05-.015.09-.03.129-.045.044-.015.085-.03.119-.045a.707.707 0 0 0 .12-.046c.08-.024.067-.045.136-.069h-.001c.043-.015.09-.03.117-.046l-.01.003a.21.21 0 0 0 .077-.034c.01-.02.01-.039.073-.064l-.004.001c.117-.04.05-.065.135-.103-.01-.004-.005-.01.015-.02.15-.06.004-.087.153-.149l-.002.001c.074-.026.064-.046.126-.071.071-.025.18-.037.24-.065l-.007.003c.051-.015.09-.03.132-.045h.001l.119-.045c.044-.015.09-.03.118-.046.079-.024.067-.045.134-.07l-.001.001c.044-.014.085-.03.123-.044a1.56 1.56 0 0 0 .12-.045c.075-.024.06-.045.136-.07h.002c.036-.016.082-.03.11-.046.145-.05.02-.073.147-.122l-.004.001a.702.702 0 0 0 .154-.066c.096-.067.234-.135.451-.21.142.083.498-.028.796-.085a1.445 1.445 0 0 0 .382-.106.317.317 0 0 0 .061-.037c.009-.016.024-.033.073-.053l-.002.002c.1-.034.043-.057.151-.092.067-.027.165-.047.248-.07a5.76 5.76 0 0 0 .328-.118.987.987 0 0 0 .13-.06l-.003.003c.154-.052.02-.074.156-.124h-.001c.11-.038.03-.059.135-.097.096-.048.123-.085.016-.1l.01.001a.428.428 0 0 0-.105-.01h.002c-.06-.004-.032-.033-.108-.033l.003.002c-.067-.03-.304.113-.33.04-.413.007-.485.16-.82.203.053-.048.22-.11.203-.155-.02-.052-.133-.026-.293.024a.49.49 0 0 1-.055.013c-.19.026-.378.064-.566.103a.478.478 0 0 1-.194-.026.884.884 0 0 0-.207.046c-.086.032-.142.062-.164.09-.004.007.003.009.011.008l-.011.002c-.04.008-.057 0-.079-.003a1.152 1.152 0 0 0-.124.005.608.608 0 0 0 .184-.08 1 1 0 0 0 .296-.057l.125-.044c.211-.033.336-.087.47-.137.1-.037.08-.059-.05-.047-.084.008-.179.024-.269.036l.027-.051c.459-.079.459-.079.701-.164l-.41.066c-.063.01-.093.006-.04-.015.022-.009.069-.017.105-.025a.728.728 0 0 0 .233-.06h.001a3.32 3.32 0 0 1 .384-.084c.157-.023.296-.062.44-.096.033-.008.067-.014.1-.02.106-.037.26-.042.361-.082h-.002c.076-.03.227-.04.276-.077-.18-.054-.49.084-.716.1-.076-.016-.207.009-.333.03a1.27 1.27 0 0 1-.364.137c-.015-.012-.094-.002-.169.007a3.548 3.548 0 0 0-.22.049l-.14.034a4.398 4.398 0 0 1-.292.055c-.203.032-.406.061-.595.094a6.34 6.34 0 0 1 .275-.048c.203-.03.375-.08.406-.136-.005-.006-.017-.01-.033-.012l.136-.03c.02-.005.023-.016.034-.025-.03.005-.071.009-.087.015-.035.012-.061.026-.09.039a.342.342 0 0 0-.04-.002c-.202.006-.37.082-.574.117.13-.026.24-.055.264-.083.038-.045-.125-.006-.22.002-.09.007-.224.042-.286.031a114.856 114.856 0 0 0 .167-.026l.13-.02c-.1-.042-.173-.034-.458.05-.16.027-.263.026-.37.02.213-.054.373-.117.596-.136.009-.001.04-.01.041-.014.005-.007.011-.018-.006-.02a2.932 2.932 0 0 0-.844.07c-.055.012-.069.02-.043.022.116.005.315-.056.456-.046l-.43.078c-.197.035-.084.06-.178.092l-.071.005a3.854 3.854 0 0 0-.14.013 2.678 2.678 0 0 0-.71.032c-.126.02-.25.025-.33.014a.418.418 0 0 0-.206.034c-.134.047-.28.065-.43.084a4.708 4.708 0 0 0-.62.118l-.107.013a2.57 2.57 0 0 0-.244.055c-.22.03-.439.068-.647.132-.013.004-.035.007-.053.01a.766.766 0 0 0-.08.007.663.663 0 0 0-.313.015c-.188.044-.377.074-.566.106-.16.027-.303.057-.4.105a1.13 1.13 0 0 1-.3.078l-1.36.22a2.474 2.474 0 0 1-.195.028.09.09 0 0 0 .007-.014 98.045 98.045 0 0 0-.103-.009l-.226.063a.027.027 0 0 0-.001.009l-.174.05c.084.006.237-.018.27.008l.002.002-.195.025c-.342.002-.777.06-1.193.108l.01-.02-.214.033c-.063-.011-.242.038-.277.011 0-.015.004-.03-.056-.032l.004.001a.228.228 0 0 0-.11.016 1.637 1.637 0 0 1-.102.017.642.642 0 0 1-.126.031.942.942 0 0 1-.075-.004c-.011 0-.017-.003-.026-.005.328-.115.75-.233 1.157-.32.185-.04.388-.072.473-.135h-.002c-.009-.032.202-.086.156-.117-.322.048-.64.1-.967.164-.378.073-.763.132-1.144.195-.065.01-.127.006-.19.01l.002-.001a.197.197 0 0 0-.103.017 1.485 1.485 0 0 1-.316.073c-.284.046-.57.085-.852.138-.16.03-.294.05-.432.059-.36.021-.745.07-1.154.146l-.23.038c-.307.056-.608.13-.918.175a1.94 1.94 0 0 1-.359.08l-.116.02-.054.01-.054.007a.347.347 0 0 1-.127.02v.001l-.442.073a1.591 1.591 0 0 1-.267.06l-1.128.186-.115.018-.229.038a1.556 1.556 0 0 1-.311.075l-1.184.192c-.359.084-.884.17-1.281.209l-.198.035c-.078.028-.17.044-.266.06l-.564.091-.115.02-.22.037h-.003a.893.893 0 0 1-.258.041.525.525 0 0 1-.075.015 2.103 2.103 0 0 1-.026.023c-.026.01-.052.02-.079.028a.281.281 0 0 0-.058-.017c-.527.08-1.066.185-1.586.245-.048-.007-.123.006-.197.018a.617.617 0 0 0-.133.036l.003-.001c-.146.048-.334.05-.477.1l-.046.011-.046.005c-.268.074-.563.08-.829.159l.006-.002c-.15.043-.296.09-.48.114a2.132 2.132 0 0 0-.142.028c-.09.022-.187.036-.278.058a1.333 1.333 0 0 0-.276.09c-.119.03-.211.065-.311.099-.204.056-.47.079-.639.153-.302.074-.595.098-.892.148l-.013.002c-.01 0-.025 0-.044.003-.067.008-.138.02-.206.03a.088.088 0 0 0-.018.022l-.007.001a.583.583 0 0 1-.011.006l-.298.053a.516.516 0 0 0 .197-.007 2.166 2.166 0 0 1-.265.065l-.19.032-.006.005a3.436 3.436 0 0 0-.129.028c-.352.067-.703.14-1.057.203-.367.098-.76.118-1.128.213l.004-.001c-.332.077-.66.112-.991.17a2.446 2.446 0 0 0-.16.031c-.075.039-.112.012-.17.025-.054.01-.106.022-.157.034a8.253 8.253 0 0 1-.957.158c-.148-.004-.34.046-.51.068a.709.709 0 0 0-.163.04h.003c-.202.057-.428.065-.63.123l-.151.036c-.106.018-.214.043-.308.053-.44.048-.893.136-1.337.2l-.004.002c-.024.007-.037.013-.038.019-.107.016-.22.04-.312.04l-.007.002-.433.088-.01.003h-.002l.005-.001a.479.479 0 0 0-.097 0c-.126.007-.279.04-.415.058-.14.019-.3.055-.41.046l-.317.05-.004.001h-.008l-.12.02h-.008v.001l-1.454.234c-.304.046-.607.09-.91.134-.358.065-.682.078-1.042.147a3.495 3.495 0 0 0-.174.024l-.862.139-.164.026c-.13.03-.252.042-.378.06-.146.025-.292.048-.439.072-.14.031-.281.062-.418.07a2.796 2.796 0 0 0-.142.02c-.072.012-.145.023-.198.047l.004-.002c-.558.114-1.108.183-1.664.279l-.17.027c-.152.027-.302.068-.45.078-.047.004-.094.01-.143.018l-.215.035a.654.654 0 0 0-.125.034l.002-.001c-.382.094-.777.114-1.159.211-.183.057-.402.06-.584.118l-.042.01-.042.006c-.196.056-.42.061-.614.122l-.042.01-.043.005c-.037.008-.055.014-.058.02h-.003l-.504.082a.788.788 0 0 0-.155.039l.003-.001c-.145.044-.3.055-.449.084a.63.63 0 0 0-.134.036l.003-.002c-.106.037-.255.043-.358.082-.18.053-.367.065-.55.1a.711.711 0 0 0-.143.038l.003-.001c-.106.037-.257.042-.36.081l-.042.01-.043.006c-.115.036-.267.044-.376.084-.18.058-.403.058-.581.119-.154.045-.315.058-.472.087-.079.013-.16.025-.223.05-.224.065-.478.069-.7.137h.001c-.255.066-.512.087-.768.135a.683.683 0 0 0-.157.04l.003-.002c-.246.064-.494.086-.74.131-.055.009-.11.018-.165.029-.14.05-.303.071-.463.097a.644.644 0 0 0-.14.038l.003-.002c-.106.037-.258.042-.358.082h.003c-.074.024-.17.037-.249.059-.069.024-.161.043-.228.067h.003c-.075.024-.16.037-.245.05a.56.56 0 0 0-.108.032l.003-.001c-.103.037-.259.042-.356.083-.08.025-.182.038-.263.063-.09.035-.237.045-.324.08-.07.024-.17.037-.232.062-.05.014-.09.03-.129.045-.044.015-.085.03-.119.045a.702.702 0 0 0-.12.046c-.08.024-.067.045-.136.069h.001c-.043.015-.09.03-.117.046l.01-.003a.21.21 0 0 0-.077.034c-.01.02-.01.038-.073.064l.004-.002c-.117.042-.05.065-.135.104.01.004.004.01-.015.019-.15.062-.004.088-.153.15l.002-.001c-.074.025-.064.046-.126.071-.071.024-.18.037-.24.065l.007-.003c-.051.014-.09.03-.132.045l-.119.044c-.044.016-.09.03-.119.047-.078.024-.066.045-.133.069h.001c-.044.014-.085.03-.123.044-.044.015-.086.03-.12.045-.075.024-.06.045-.136.07h-.002c-.036.015-.082.03-.11.045-.145.051-.02.074-.147.123l.003-.001a.703.703 0 0 0-.153.066 1.826 1.826 0 0 1-.451.21c-.142-.083-.498.028-.796.085a1.453 1.453 0 0 0-.382.106.319.319 0 0 0-.061.037c-.009.016-.024.033-.073.052H1.7c-.1.033-.043.056-.152.09-.066.028-.164.047-.247.07a5.725 5.725 0 0 0-.329.118.987.987 0 0 0-.13.06l.004-.002c-.154.051-.02.074-.156.124h.001c-.11.038-.03.059-.135.096-.096.049-.123.085-.017.1H.531a.46.46 0 0 0 .104.01H.633c.06.004.032.032.108.032l-.003-.001c.067.03.304-.113.33-.04.413-.007.485-.16.82-.204-.053.05-.22.11-.203.155.02.053.133.026.292-.023l.056-.014c.19-.026.378-.063.565-.102a.477.477 0 0 1 .195.026.883.883 0 0 0 .207-.046c.086-.032.141-.062.164-.091.004-.006-.003-.008-.012-.008.004 0 .007 0 .012-.002.04-.007.057 0 .079.004.038 0 .08-.002.124-.005a.608.608 0 0 0-.184.08 1.002 1.002 0 0 0-.297.057l-.124.044c-.211.033-.336.087-.47.137-.101.037-.08.059.05.047.083-.008.179-.024.269-.036l-.028.051c-.458.079-.458.079-.7.163.15-.024.28-.046.41-.065.062-.01.093-.006.04.015-.022.009-.07.017-.105.025a.727.727 0 0 0-.233.06h-.001a3.32 3.32 0 0 1-.384.084c-.157.023-.296.061-.44.096a1.408 1.408 0 0 1-.101.019c-.105.038-.259.043-.36.083H.71c-.077.029-.227.04-.276.077zM67.508 7.649l.007-.003h.004l-.011.003zM8.729 19.736l-.01.001a8.927 8.927 0 0 0 .01 0zM67.155 7.732h-.005a1.854 1.854 0 0 1 .005 0zm-5.297.305l.01-.001-.092.018.082-.017zM3.425 20.04h.007l.005-.001.019.004a.192.192 0 0 1-.024-.003h-.007zm-.346.083l-.007.003h-.005l.012-.003z" fill="#FF3D00"/><path d="M2.33 2.344c.13.137.466.174.67.275.057.051.183.096.303.14a1.27 1.27 0 0 1 .383.067c.007.017.08.048.15.077a3.3 3.3 0 0 0 .214.07l.138.04c.095.03.188.065.28.1.192.074.382.152.562.219a6.354 6.354 0 0 1-.262-.098c-.19-.076-.364-.12-.42-.086.002.008.01.017.023.027-.045-.015-.09-.031-.133-.043-.02-.005-.028.002-.041.004.028.011.066.029.083.032a.923.923 0 0 0 .096.01.25.25 0 0 0 .034.023c.178.097.362.116.556.188-.127-.044-.236-.074-.27-.062-.056.02.105.069.19.11.082.039.215.076.264.117l-.07-.027-.088-.034-.122-.049c.065.087.131.117.42.188.152.056.24.109.33.169-.212-.06-.381-.087-.583-.183a.15.15 0 0 0-.043-.01c-.008.005-.019.011-.005.02.177.127.424.25.765.365.053.018.07.019.048.004-.098-.063-.3-.11-.417-.19l.411.15c.187.068.102-.01.2.01l.064.031c.04.02.083.04.126.058.144.105.327.212.631.331.118.047.228.104.292.154.051.04.117.063.195.075.139.026.275.084.414.143.222.094.335.134.594.211.034.014.067.028.099.043a2.58 2.58 0 0 0 .239.075c.206.085.413.162.625.212.014.003.034.011.051.017a.766.766 0 0 0 .072.035c.05.047.125.098.278.145.185.056.364.125.543.193.152.058.29.103.398.11.082.006.184.04.298.084l1.287.494c.063.025.126.05.182.076a.1.1 0 0 0-.013.008l.085.06.227.059a.028.028 0 0 0 .005-.007l.175.044c-.069-.047-.213-.103-.229-.142v-.003l.18.076c.297.17.703.339 1.086.507l-.02.014.202.078c.05.042.229.09.245.13-.007.013-.019.025.033.056l-.003-.003c.025.02.058.034.103.041l.096.037c.021.001.07.017.125.037l.063.04c.01.007.013.013.02.019a9.834 9.834 0 0 1-1.161-.307c-.18-.059-.371-.133-.477-.122l.002.002c-.009.032-.217-.028-.194.023.303.12.603.235.918.345.364.128.726.27 1.087.408.062.023.113.058.169.087h-.003a.205.205 0 0 0 .098.037c.092.012.203.054.31.096.269.103.535.213.806.31.152.055.279.104.402.166.322.163.679.315 1.07.455l.22.083c.293.106.59.194.88.312.11.02.23.063.35.111l.11.042.053.018.05.02v.001a.38.38 0 0 1 .12.046l.42.16c.081.015.17.048.26.082l1.068.407.108.042.217.083a1.6 1.6 0 0 1 .307.092l1.12.43c.351.109.848.3 1.211.465l.189.07c.08.015.17.047.26.082l.533.205.11.042.208.078.002.002a.91.91 0 0 1 .244.093.543.543 0 0 1 .072.025l.035-.006.082.015c.007.011.02.026.042.044.495.197 1.014.377 1.493.588.038.03.11.056.18.083a.62.62 0 0 0 .132.036h-.003c.15.031.314.125.463.152l.045.015.042.018c.27.072.526.215.796.28h-.006c.152.038.3.071.472.143.046.017.091.033.137.047.09.027.18.063.269.09a1.318 1.318 0 0 0 .284.06v.001c.118.034.216.05.319.072.204.054.445.168.629.189.298.088.563.215.845.322l.012.004a.288.288 0 0 0 .04.02c.061.027.129.051.194.077a.086.086 0 0 0 .026-.009l.006.002.013.001.284.103a.52.52 0 0 0-.174-.092c.083.017.172.046.262.077l.18.068.008-.002c.042.015.084.029.125.041.338.12.678.234 1.016.358.366.1.715.28 1.081.384l-.003-.001c.324.1.627.235.942.351.05.02.101.038.153.054.084.005.103.046.16.065a8.267 8.267 0 0 1 1.058.395c.127.078.318.131.475.198.06.024.114.04.161.047h-.002c.203.05.403.158.606.21l.149.045c.1.037.206.07.293.109.403.18.84.333 1.256.5l.003.001c.025.006.039.007.043.003.1.04.21.076.29.123l.007.001.418.142.01.002.002.002a.478.478 0 0 0 .08.048c.111.056.26.105.386.158.132.055.287.103.378.167l.3.116.003.001.007.003.114.044.007.004h.001l1.373.53c.286.113.57.227.854.342.342.124.628.276.974.398.052.023.107.046.163.067l.814.314.155.06c.127.039.24.09.356.138l.416.16c.137.043.274.088.397.15l.132.054c.069.026.138.053.195.059h-.004c.539.182 1.049.4 1.577.596l.162.063c.144.053.294.093.428.16.041.019.085.037.131.055l.204.078c.047.018.089.03.125.035h-.002c.377.11.729.292 1.108.4.187.043.377.152.564.192l.04.013.04.016c.198.05.395.16.592.204l.041.012.04.017c.036.012.055.016.06.013h.003c.159.062.318.124.477.184a.793.793 0 0 0 .152.045h-.002c.147.035.286.102.43.153a.6.6 0 0 0 .134.036h-.004c.11.021.242.092.35.11.182.044.35.128.527.19.053.02.1.033.142.04h-.003c.11.02.243.092.352.11l.041.012.04.017c.118.027.253.097.368.117.185.041.377.152.562.19.155.038.3.108.45.162.076.029.152.06.219.07.226.056.448.181.674.234h-.002c.254.07.487.182.733.27.058.022.11.037.155.044h-.003c.244.069.469.175.705.26.052.02.104.04.157.058.145.027.298.09.449.149.053.02.1.033.14.038h-.004c.11.022.244.094.351.11l-.003-.001c.076.015.166.053.245.073.071.014.16.044.23.057h-.002c.077.016.157.048.237.078a.565.565 0 0 0 .11.027h-.004c.108.02.245.094.35.108.081.019.176.058.259.078.095.015.227.08.32.093.072.016.166.055.232.064.05.013.093.02.133.026a1 1 0 0 0 .126.021c.049.012.094.02.127.021.081.02.08-.005.152.009h-.001c.045.008.093.019.125.019l-.011-.003c.04.01.068.013.084.01.018-.013.029-.029.095-.02h-.004c.122.024.076-.03.168-.02-.005-.01.002-.013.023-.01.162.023.049-.074.207-.053h-.001c.076.015.078-.008.145.002.073.015.173.058.24.065l-.008-.001c.052.014.093.02.137.028l.126.022c.045.009.092.018.125.02.08.018.08-.006.15.007.045.01.088.017.128.023.046.01.09.018.127.022.077.017.074-.01.152.008h.002c.04.006.087.016.118.017.15.03.055-.053.189-.031l-.004-.001a.703.703 0 0 0 .166.02c.117-.01.27.002.496.046.08.143.443.226.73.327a1.441 1.441 0 0 0 .383.1c.03.003.053.002.072 0 .015-.01.037-.017.09-.01h-.003c.104.022.066-.027.177-.002.07.01.165.043.249.064.12.026.236.048.343.064.056.01.101.013.142.014h-.004c.16.033.054-.054.197-.029h-.001c.114.023.057-.035.166-.015.107.006.149-.012.064-.078l.008.005a.432.432 0 0 0-.086-.062l.002.001c-.05-.034-.011-.044-.076-.082l.001.003c-.043-.06-.32-.056-.305-.132-.36-.202-.5-.106-.81-.237.07-.016.244.016.252-.032.01-.055-.101-.09-.264-.127l-.055-.016a8.51 8.51 0 0 0-.54-.197.475.475 0 0 1-.155-.12.888.888 0 0 0-.201-.064.417.417 0 0 0-.189-.005c-.006.004 0 .009.007.013a.297.297 0 0 0-.011-.004c-.039-.014-.05-.03-.067-.043a.937.937 0 0 0-.11-.058.608.608 0 0 0 .2.023c.085.047.18.08.285.1l.13.026c.199.077.333.093.475.118.106.018.099-.01-.02-.066-.076-.035-.166-.07-.25-.104l.05-.031c.434.163.434.163.687.212-.143-.055-.266-.102-.387-.15-.06-.023-.084-.042-.029-.033.025.003.07.02.105.03a.73.73 0 0 0 .23.067h.002c.123.034.245.068.374.12.147.06.287.097.429.14.032.01.064.021.096.034.11.02.245.093.353.11h-.002c.081.012.217.078.278.071-.129-.137-.466-.174-.67-.274-.056-.052-.182-.096-.302-.142a1.273 1.273 0 0 1-.384-.065c-.006-.018-.08-.049-.149-.078a3.3 3.3 0 0 0-.215-.07l-.138-.04a4.374 4.374 0 0 1-.28-.1c-.191-.074-.381-.152-.561-.219.084.03.172.062.262.098.19.076.364.12.419.086-.002-.008-.01-.017-.023-.027.045.015.091.031.133.043.02.006.028-.002.042-.004-.028-.01-.066-.029-.083-.032a.914.914 0 0 0-.097-.01.325.325 0 0 0-.034-.023c-.178-.096-.361-.116-.555-.188.126.044.235.074.27.062.056-.02-.105-.069-.19-.11-.082-.039-.216-.076-.264-.117l.069.027.09.035h-.001l.122.048c-.066-.087-.132-.117-.42-.188a1.45 1.45 0 0 1-.33-.169c.211.06.38.087.583.183.008.004.04.01.043.01.007-.005.018-.011.004-.02a2.935 2.935 0 0 0-.764-.365c-.053-.018-.07-.019-.048-.004.097.063.3.11.416.19l-.41-.15c-.188-.068-.103.01-.2-.01a3.635 3.635 0 0 0-.191-.09 2.677 2.677 0 0 0-.63-.33 1.287 1.287 0 0 1-.293-.154.417.417 0 0 0-.194-.074c-.14-.027-.275-.085-.414-.144a4.72 4.72 0 0 0-.595-.211 4.572 4.572 0 0 1-.098-.043 2.62 2.62 0 0 0-.24-.075 4.115 4.115 0 0 0-.624-.212c-.014-.003-.034-.011-.051-.017a.797.797 0 0 0-.073-.035.662.662 0 0 0-.278-.145c-.185-.056-.363-.125-.542-.193a1.545 1.545 0 0 0-.399-.11 1.131 1.131 0 0 1-.298-.084l-1.286-.494a2.96 2.96 0 0 1-.182-.076.101.101 0 0 0 .012-.008l-.085-.06-.226-.059a.027.027 0 0 0-.006.007l-.175-.044c.07.047.214.103.23.142v.003l-.181-.076c-.296-.17-.702-.339-1.085-.507a2.2 2.2 0 0 0 .019-.014l-.202-.078c-.049-.042-.228-.09-.244-.13.007-.013.018-.025-.033-.056l.003.003a.229.229 0 0 0-.103-.041 1.665 1.665 0 0 1-.097-.037.646.646 0 0 1-.124-.037 1.975 1.975 0 0 1-.063-.04c-.01-.007-.014-.013-.02-.018.341.065.765.175 1.16.306.18.059.372.133.478.122l-.002-.002c.008-.032.217.028.193-.023-.302-.12-.603-.235-.918-.345-.363-.128-.726-.27-1.087-.408-.061-.023-.112-.058-.168-.087h.002a.197.197 0 0 0-.098-.037h.001a1.433 1.433 0 0 1-.31-.096c-.27-.103-.535-.213-.806-.31a3.443 3.443 0 0 1-.403-.166 9.27 9.27 0 0 0-1.07-.455l-.219-.083c-.293-.106-.59-.194-.88-.312a1.94 1.94 0 0 1-.35-.111l-.11-.042-.053-.018-.05-.02v-.001a.348.348 0 0 1-.12-.046l-.42-.16a1.6 1.6 0 0 1-.26-.082l-1.068-.407a191.105 191.105 0 0 1-.325-.125 1.558 1.558 0 0 1-.307-.092l-1.12-.43c-.352-.109-.849-.3-1.211-.465l-.19-.07a1.498 1.498 0 0 1-.259-.082l-.533-.205-.11-.041-.209-.08a.52.52 0 0 1-.318-.12l-.034.007a1.333 1.333 0 0 1-.082-.015.278.278 0 0 0-.042-.044c-.495-.197-1.014-.377-1.494-.587-.037-.03-.11-.057-.179-.084a.62.62 0 0 0-.132-.036h.003c-.15-.031-.314-.125-.463-.152l-.046-.015-.042-.018c-.269-.072-.526-.214-.796-.28h.006c-.152-.038-.3-.07-.471-.143a2.153 2.153 0 0 0-.137-.047c-.09-.027-.18-.062-.27-.09a1.314 1.314 0 0 0-.284-.06l.001-.001c-.119-.034-.216-.05-.32-.072-.203-.053-.444-.168-.628-.189-.299-.088-.564-.215-.846-.321l-.012-.005a.3.3 0 0 0-.04-.02c-.06-.027-.128-.051-.193-.077a.086.086 0 0 0-.026.009.618.618 0 0 0-.007-.002l-.012-.001-.284-.103a.52.52 0 0 0 .174.092 2.185 2.185 0 0 1-.263-.077l-.179-.068-.008.002a3.325 3.325 0 0 0-.125-.041c-.338-.12-.678-.234-1.016-.357-.367-.1-.715-.281-1.082-.385l.004.001c-.325-.1-.627-.235-.942-.351a2.332 2.332 0 0 0-.153-.054c-.085-.005-.103-.046-.16-.065a2.874 2.874 0 0 0-.152-.049 8.26 8.26 0 0 1-.907-.346c-.126-.078-.318-.131-.474-.198a.703.703 0 0 0-.162-.047h.003c-.203-.05-.403-.158-.606-.21l-.15-.045c-.1-.037-.205-.07-.292-.109-.403-.18-.84-.333-1.256-.5l-.003-.001c-.025-.006-.04-.007-.043-.003-.1-.04-.21-.076-.29-.123l-.008-.001-.417-.142-.01-.002-.003-.002.005.002a.478.478 0 0 0-.073-.045l-.01-.005c-.112-.056-.26-.105-.388-.158-.131-.055-.286-.103-.377-.167l-.3-.116-.003-.001-.007-.003a6.302 6.302 0 0 0-.115-.044l-.006-.004h-.001l-1.374-.53a137.9 137.9 0 0 1-.853-.342c-.342-.124-.629-.276-.974-.398a3.47 3.47 0 0 0-.163-.067l-.814-.314a59.16 59.16 0 0 0-.155-.06c-.127-.039-.24-.09-.357-.138l-.416-.16a2.813 2.813 0 0 1-.396-.15 2.839 2.839 0 0 0-.132-.054c-.069-.026-.138-.053-.195-.059h.004c-.54-.181-1.049-.4-1.578-.596l-.162-.063c-.143-.053-.293-.093-.427-.16a2.22 2.22 0 0 0-.132-.055 27.387 27.387 0 0 0-.203-.078.649.649 0 0 0-.126-.034h.003c-.378-.111-.73-.293-1.108-.401-.187-.043-.378-.152-.564-.192l-.041-.012-.04-.017c-.197-.05-.394-.159-.591-.204l-.042-.012-.04-.017c-.035-.012-.054-.016-.06-.013h-.002l-.477-.184a.793.793 0 0 0-.153-.044h.003c-.148-.035-.287-.103-.43-.154a.633.633 0 0 0-.134-.036h.003c-.11-.021-.242-.092-.35-.11-.182-.044-.35-.128-.526-.19a.717.717 0 0 0-.143-.04h.003c-.11-.02-.243-.092-.352-.11l-.04-.012-.04-.017c-.118-.027-.253-.097-.368-.117-.185-.041-.377-.152-.562-.19-.155-.038-.3-.108-.451-.162-.075-.028-.15-.06-.218-.07-.226-.056-.448-.18-.675-.234h.002c-.254-.07-.487-.182-.732-.27a.686.686 0 0 0-.155-.044h.003c-.245-.069-.47-.175-.706-.26a4.941 4.941 0 0 0-.156-.058c-.146-.027-.298-.09-.45-.149a.637.637 0 0 0-.14-.038h.004c-.11-.021-.244-.093-.35-.11l.002.002c-.076-.016-.165-.054-.244-.074-.072-.014-.16-.044-.23-.057h.002c-.077-.016-.158-.048-.237-.078a.562.562 0 0 0-.11-.027h.004c-.108-.02-.245-.094-.35-.107-.082-.02-.176-.06-.259-.079-.095-.015-.227-.08-.32-.093-.072-.015-.166-.055-.232-.064a1.219 1.219 0 0 0-.134-.026 1.254 1.254 0 0 0-.125-.021.705.705 0 0 0-.127-.021c-.081-.02-.08.005-.152-.009-.044-.008-.092-.019-.124-.019l.011.003a.21.21 0 0 0-.085-.01c-.017.013-.028.029-.094.02h.004c-.122-.023-.077.03-.169.021.006.009-.002.012-.023.01-.16-.023-.048.073-.207.052h.002c-.077-.015-.079.008-.145-.002-.074-.015-.173-.058-.24-.065l.008.001c-.052-.013-.093-.02-.137-.028h-.001l-.125-.021a.689.689 0 0 0-.126-.02c-.08-.019-.08.006-.15-.008h.001a2.316 2.316 0 0 0-.128-.023 1.551 1.551 0 0 0-.128-.022c-.076-.017-.073.01-.151-.008h-.003c-.039-.006-.086-.016-.118-.017-.15-.03-.054.054-.188.032h.004a.704.704 0 0 0-.166-.02c-.117.01-.27-.001-.496-.046-.08-.142-.444-.226-.73-.327a1.45 1.45 0 0 0-.383-.1.315.315 0 0 0-.072 0c-.016.01-.037.017-.09.01h.003c-.104-.022-.066.027-.177.002-.071-.01-.166-.042-.249-.064a5.754 5.754 0 0 0-.343-.064.987.987 0 0 0-.143-.014h.005c-.16-.033-.054.054-.198.029h.002c-.115-.023-.057.036-.166.016-.107-.007-.15.011-.065.077L2.73 1.85c.015.017.05.04.085.061l-.001-.001c.05.034.011.044.076.082l-.002-.003c.043.06.32.056.305.132.36.202.5.106.811.237-.07.016-.244-.015-.253.032-.01.055.102.09.265.127l.054.016c.178.074.359.136.54.197a.477.477 0 0 1 .156.12c.01.014.134.05.201.065a.408.408 0 0 0 .188.004c.007-.004.001-.009-.006-.013l.011.004c.039.014.05.03.066.043.033.02.07.04.11.058a.608.608 0 0 0-.199-.023 1.002 1.002 0 0 0-.285-.1l-.13-.025c-.2-.078-.334-.094-.475-.119-.106-.018-.1.01.02.066.076.036.166.07.25.104a10.53 10.53 0 0 0-.05.031c-.435-.163-.435-.163-.687-.212.143.055.266.102.387.15.06.023.084.042.028.033-.024-.003-.069-.02-.104-.03a.728.728 0 0 0-.231-.067h-.002a3.312 3.312 0 0 1-.373-.12c-.147-.06-.287-.097-.43-.14a1.44 1.44 0 0 1-.096-.034c-.11-.02-.245-.093-.353-.11h.003c-.081-.012-.217-.078-.278-.07zm64.585 22.393l.008.001.003.003-.011-.004zM10.047 5.577l-.01-.005.09.03a4.47 4.47 0 0 1-.08-.025zM66.569 24.63l.006.004-.006-.004c-.002 0-.003 0-.005-.002l-.014-.012.02.014zm-4.73-2.404l.01.004-.09-.03c.028.008.054.017.08.026zM5.312 3.168l.006.004.005.002a1.636 1.636 0 0 1-.005-.002l-.006-.004zm-.341-.102a1.45 1.45 0 0 0-.008-.001l-.003-.003.01.004z" fill="#FF3D00"/></svg>