<svg width="123" height="24" fill="none" xmlns="http://www.w3.org/2000/svg"><path d="M10.603 2.133a1 1 0 0 1 1.794 0l2.25 4.56a1 1 0 0 0 .753.547l5.032.731a1 1 0 0 1 .554 1.706l-3.641 3.55a1 1 0 0 0-.288.884l.86 5.012a1 1 0 0 1-1.45 1.054l-4.502-2.366a1 1 0 0 0-.93 0l-4.501 2.366a1 1 0 0 1-1.451-1.054l.86-5.012a1 1 0 0 0-.288-.885L2.014 9.677a1 1 0 0 1 .554-1.706l5.032-.73a1 1 0 0 0 .753-.548l2.25-4.56zm25 0a1 1 0 0 1 1.794 0l2.25 4.56a1 1 0 0 0 .753.547l5.032.731a1 1 0 0 1 .554 1.706l-3.641 3.55a1 1 0 0 0-.288.884l.86 5.012a1 1 0 0 1-1.45 1.054l-4.502-2.366a1 1 0 0 0-.93 0l-4.501 2.366a1 1 0 0 1-1.451-1.054l.86-5.012a1 1 0 0 0-.288-.885l-3.641-3.549a1 1 0 0 1 .554-1.706l5.032-.73a1 1 0 0 0 .753-.548l2.25-4.56zm25 0a1 1 0 0 1 1.794 0l2.25 4.56a1 1 0 0 0 .753.547l5.032.731a1 1 0 0 1 .554 1.706l-3.641 3.55a1 1 0 0 0-.288.884l.86 5.012a1 1 0 0 1-1.45 1.054l-4.502-2.366a1 1 0 0 0-.93 0l-4.501 2.366a1 1 0 0 1-1.451-1.054l.86-5.012a1 1 0 0 0-.288-.885l-3.641-3.549a1 1 0 0 1 .554-1.706l5.032-.73a1 1 0 0 0 .753-.548l2.25-4.56zm25 0a1 1 0 0 1 1.794 0l2.25 4.56a1 1 0 0 0 .753.547l5.032.731a1 1 0 0 1 .554 1.706l-3.641 3.55a1 1 0 0 0-.288.884l.86 5.012a1 1 0 0 1-1.45 1.054l-4.502-2.366a1 1 0 0 0-.93 0l-4.501 2.366a1 1 0 0 1-1.451-1.054l.86-5.012a1 1 0 0 0-.288-.885l-3.641-3.549a1 1 0 0 1 .554-1.706l5.032-.73a1 1 0 0 0 .753-.548l2.25-4.56zm25 0a1 1 0 0 1 1.794 0l2.25 4.56a1 1 0 0 0 .753.547l5.032.731a1 1 0 0 1 .554 1.706l-3.641 3.55a.999.999 0 0 0-.288.884l.86 5.012a1 1 0 0 1-1.451 1.054l-4.501-2.366a.998.998 0 0 0-.93 0l-4.501 2.366a1 1 0 0 1-1.451-1.054l.86-5.012a1.001 1.001 0 0 0-.288-.885l-3.641-3.549a1 1 0 0 1 .554-1.706l5.032-.73a1 1 0 0 0 .753-.548l2.25-4.56z" fill="#FF3D00"/></svg>